<?xml version="1.0" encoding="UTF-8" standalone="no"?>
<!-- Created with Inkscape (http://www.inkscape.org/) -->

<svg
   width="182.13716mm"
   height="37.357502mm"
   viewBox="0 0 182.13716 37.357502"
   version="1.1"
   id="svg5"
   inkscape:version="1.2.2 (b0a8486541, 2022-12-01)"
   sodipodi:docname="img02-03-02.svg"
   inkscape:export-filename="img02-03-02.png"
   inkscape:export-xdpi="150"
   inkscape:export-ydpi="150"
   xmlns:inkscape="http://www.inkscape.org/namespaces/inkscape"
   xmlns:sodipodi="http://sodipodi.sourceforge.net/DTD/sodipodi-0.dtd"
   xmlns="http://www.w3.org/2000/svg"
   xmlns:svg="http://www.w3.org/2000/svg"
   xmlns:ns1="http://www.iki.fi/pav/software/textext/">
  <sodipodi:namedview
     id="namedview7"
     pagecolor="#ffffff"
     bordercolor="#666666"
     borderopacity="1.0"
     inkscape:showpageshadow="2"
     inkscape:pageopacity="0.0"
     inkscape:pagecheckerboard="0"
     inkscape:deskcolor="#d1d1d1"
     inkscape:document-units="mm"
     showgrid="false"
     inkscape:zoom="1.1893044"
     inkscape:cx="242.15836"
     inkscape:cy="-45.825106"
     inkscape:window-width="1864"
     inkscape:window-height="1051"
     inkscape:window-x="0"
     inkscape:window-y="0"
     inkscape:window-maximized="1"
     inkscape:current-layer="layer1" />
  <defs
     id="defs2">
    <rect
       x="222.83627"
       y="-71.470352"
       width="101.42532"
       height="55.915035"
       id="rect6404" />
    <rect
       x="275.37106"
       y="490.62292"
       width="122.34812"
       height="100.20816"
       id="rect3972" />
    <marker
       style="overflow:visible"
       id="EmptyTriangleIn"
       refX="0"
       refY="0"
       orient="auto-start-reverse"
       inkscape:stockid="EmptyTriangleIn"
       markerWidth="5.8241119"
       markerHeight="6.7330775"
       viewBox="0 0 5.8241121 6.7330776"
       inkscape:isstock="true"
       inkscape:collect="always"
       preserveAspectRatio="xMidYMid">
      <path
         transform="scale(0.5)"
         style="fill:context-fill;fill-rule:evenodd;stroke:context-stroke;stroke-width:2"
         d="M 5.77,0 -2.88,5 V -5 Z"
         id="path153" />
    </marker>
    <rect
       x="479.75726"
       y="645.0921"
       width="257.25061"
       height="120.10009"
       id="rect2356" />
    <rect
       x="479.75726"
       y="645.0921"
       width="257.25061"
       height="120.10009"
       id="rect2364" />
    <rect
       x="275.37106"
       y="490.62292"
       width="122.34812"
       height="100.20816"
       id="rect3986" />
  </defs>
  <g
     inkscape:label="Layer 1"
     inkscape:groupmode="layer"
     id="layer1"
     transform="translate(-12.935538,-138.90694)">
    <g
       id="g7443">
      <rect
         style="fill:#cccccc;fill-opacity:1;stroke:none;stroke-width:0.133544;stroke-linejoin:round;stroke-dasharray:1.06667, 0.533338;stroke-dashoffset:0"
         id="rect6704"
         width="48.784439"
         height="17.292856"
         x="146.28825"
         y="143.61133" />
      <rect
         style="fill:#cccccc;fill-opacity:1;stroke:none;stroke-width:0.206505;stroke-linejoin:round;stroke-dasharray:1.64944, 0.824723;stroke-dashoffset:0"
         id="rect3772"
         width="116.65198"
         height="17.292856"
         x="12.945113"
         y="143.61133" />
      <g
         id="g2298"
         transform="matrix(0.91934424,0,0,0.91934424,2.8189869,11.66972)">
        <g
           id="g1817"
           transform="matrix(0.68689584,0,0,0.68689584,22.368373,49.673114)">
          <g
             id="g1741">
            <g
               id="g1734">
              <circle
                 style="fill:#e6e6e6;stroke:none;stroke-width:0.757646;stroke-linejoin:round"
                 id="circle1406"
                 cx="129.244"
                 cy="150.31241"
                 r="11.991" />
              <path
                 style="fill:none;stroke:#4d4d4d;stroke-width:0.264583px;stroke-linecap:butt;stroke-linejoin:miter;stroke-opacity:1"
                 d="m 120.98107,141.80072 16.79966,16.87324"
                 id="path1725" />
              <path
                 style="fill:none;stroke:#4d4d4d;stroke-width:0.264583px;stroke-linecap:butt;stroke-linejoin:miter;stroke-opacity:1"
                 d="m 120.90776,158.67396 16.8736,-16.79816"
                 id="path1727" />
            </g>
            <rect
               style="fill:#e31937;fill-opacity:1;stroke:none;stroke-width:0.151281;stroke-linejoin:round"
               id="rect1408"
               width="0.47032475"
               height="12.878349"
               x="129.13768"
               y="143.87323" />
          </g>
        </g>
        <g
           id="g1824"
           transform="matrix(0.68689584,0,0,0.68689584,40.300232,32.044211)">
          <g
             id="g1749"
             transform="translate(0,25.664595)">
            <circle
               style="fill:#e6e6e6;stroke:none;stroke-width:0.757646;stroke-linejoin:round"
               id="circle1743"
               cx="129.244"
               cy="150.31241"
               r="11.991" />
            <path
               style="fill:none;stroke:#4d4d4d;stroke-width:0.264583px;stroke-linecap:butt;stroke-linejoin:miter;stroke-opacity:1"
               d="m 120.98107,141.80072 16.79966,16.87324"
               id="path1745" />
            <path
               style="fill:none;stroke:#4d4d4d;stroke-width:0.264583px;stroke-linecap:butt;stroke-linejoin:miter;stroke-opacity:1"
               d="m 120.90776,158.67396 16.8736,-16.79816"
               id="path1747" />
          </g>
          <rect
             style="fill:#e31937;fill-opacity:1;stroke:none;stroke-width:0.151281;stroke-linejoin:round"
             id="rect1751"
             width="0.47032475"
             height="12.878349"
             x="132.8418"
             y="169.53783" />
        </g>
        <g
           id="g1831"
           transform="matrix(0.68689584,0,0,0.68689584,58.232092,14.415307)">
          <g
             id="g1761"
             transform="translate(0,51.32919)">
            <circle
               style="fill:#e6e6e6;stroke:none;stroke-width:0.757646;stroke-linejoin:round"
               id="circle1755"
               cx="129.244"
               cy="150.31241"
               r="11.991" />
            <path
               style="fill:none;stroke:#4d4d4d;stroke-width:0.264583px;stroke-linecap:butt;stroke-linejoin:miter;stroke-opacity:1"
               d="m 120.98107,141.80072 16.79966,16.87324"
               id="path1757" />
            <path
               style="fill:none;stroke:#4d4d4d;stroke-width:0.264583px;stroke-linecap:butt;stroke-linejoin:miter;stroke-opacity:1"
               d="m 120.90776,158.67396 16.8736,-16.79816"
               id="path1759" />
          </g>
          <rect
             style="fill:#e31937;fill-opacity:1;stroke:none;stroke-width:0.151281;stroke-linejoin:round"
             id="rect1763"
             width="0.47032475"
             height="12.878349"
             x="134.95844"
             y="195.20242" />
        </g>
        <g
           id="g1838"
           transform="matrix(0.68689584,0,0,0.68689584,76.163951,-3.2135964)">
          <g
             id="g1773"
             transform="translate(0,76.993785)">
            <circle
               style="fill:#e6e6e6;stroke:none;stroke-width:0.757646;stroke-linejoin:round"
               id="circle1767"
               cx="129.244"
               cy="150.31241"
               r="11.991" />
            <path
               style="fill:none;stroke:#4d4d4d;stroke-width:0.264583px;stroke-linecap:butt;stroke-linejoin:miter;stroke-opacity:1"
               d="m 120.98107,141.80072 16.79966,16.87324"
               id="path1769" />
            <path
               style="fill:none;stroke:#4d4d4d;stroke-width:0.264583px;stroke-linecap:butt;stroke-linejoin:miter;stroke-opacity:1"
               d="m 120.90776,158.67396 16.8736,-16.79816"
               id="path1771" />
          </g>
          <rect
             style="fill:#e31937;fill-opacity:1;stroke:none;stroke-width:0.151281;stroke-linejoin:round"
             id="rect1775"
             width="0.47032475"
             height="12.878349"
             x="132.31264"
             y="220.86702" />
        </g>
        <g
           id="g1845"
           transform="matrix(0.68689584,0,0,0.68689584,94.095811,-20.8425)">
          <g
             id="g1785"
             transform="translate(0,102.65838)">
            <circle
               style="fill:#e6e6e6;stroke:none;stroke-width:0.757646;stroke-linejoin:round"
               id="circle1779"
               cx="129.244"
               cy="150.31241"
               r="11.991" />
            <path
               style="fill:none;stroke:#4d4d4d;stroke-width:0.264583px;stroke-linecap:butt;stroke-linejoin:miter;stroke-opacity:1"
               d="m 120.98107,141.80072 16.79966,16.87324"
               id="path1781" />
            <path
               style="fill:none;stroke:#4d4d4d;stroke-width:0.264583px;stroke-linecap:butt;stroke-linejoin:miter;stroke-opacity:1"
               d="m 120.90776,158.67396 16.8736,-16.79816"
               id="path1783" />
          </g>
          <rect
             style="fill:#e31937;fill-opacity:1;stroke:none;stroke-width:0.151281;stroke-linejoin:round"
             id="rect1787"
             width="0.47032475"
             height="12.878349"
             x="129.13768"
             y="246.53162" />
        </g>
        <g
           id="g2039"
           transform="matrix(0.68689584,0,0,0.68689584,52.491706,45.301636)">
          <g
             id="g1886"
             transform="translate(-173.03802,6.364106)">
            <circle
               style="fill:#e6e6e6;stroke:none;stroke-width:0.757646;stroke-linejoin:round"
               id="circle1880"
               cx="129.244"
               cy="150.31241"
               r="11.991" />
            <path
               style="fill:none;stroke:#4d4d4d;stroke-width:0.264583px;stroke-linecap:butt;stroke-linejoin:miter;stroke-opacity:1"
               d="m 120.98107,141.80072 16.79966,16.87324"
               id="path1882" />
            <path
               style="fill:none;stroke:#4d4d4d;stroke-width:0.264583px;stroke-linecap:butt;stroke-linejoin:miter;stroke-opacity:1"
               d="m 120.90776,158.67396 16.8736,-16.79816"
               id="path1884" />
          </g>
          <rect
             style="fill:#e31937;fill-opacity:1;stroke:none;stroke-width:0.151281;stroke-linejoin:round"
             id="rect1888"
             width="0.47032475"
             height="12.878349"
             x="-57.12952"
             y="150.23734" />
        </g>
        <g
           id="g2047"
           transform="matrix(0.68689584,0,0,0.68689584,51.299098,45.301636)">
          <g
             id="g2032">
            <g
               id="g1900"
               transform="translate(-146.54065,6.364106)">
              <circle
                 style="fill:#e6e6e6;stroke:none;stroke-width:0.757646;stroke-linejoin:round"
                 id="circle1894"
                 cx="129.244"
                 cy="150.31241"
                 r="11.991" />
              <path
                 style="fill:none;stroke:#4d4d4d;stroke-width:0.264583px;stroke-linecap:butt;stroke-linejoin:miter;stroke-opacity:1"
                 d="m 120.98107,141.80072 16.79966,16.87324"
                 id="path1896" />
              <path
                 style="fill:none;stroke:#4d4d4d;stroke-width:0.264583px;stroke-linecap:butt;stroke-linejoin:miter;stroke-opacity:1"
                 d="m 120.90776,158.67396 16.8736,-16.79816"
                 id="path1898" />
            </g>
            <rect
               style="fill:#e31937;fill-opacity:1;stroke:none;stroke-width:0.151281;stroke-linejoin:round"
               id="rect1902"
               width="0.47032475"
               height="12.878349"
               x="-28.51553"
               y="150.23734" />
          </g>
        </g>
        <g
           id="g2025"
           transform="matrix(0.68689584,0,0,0.68689584,51.030031,45.301636)">
          <g
             id="g1912"
             transform="translate(-120.04329,6.364106)">
            <circle
               style="fill:#e6e6e6;stroke:none;stroke-width:0.757646;stroke-linejoin:round"
               id="circle1906"
               cx="129.244"
               cy="150.31241"
               r="11.991" />
            <path
               style="fill:none;stroke:#4d4d4d;stroke-width:0.264583px;stroke-linecap:butt;stroke-linejoin:miter;stroke-opacity:1"
               d="m 120.98107,141.80072 16.79966,16.87324"
               id="path1908" />
            <path
               style="fill:none;stroke:#4d4d4d;stroke-width:0.264583px;stroke-linecap:butt;stroke-linejoin:miter;stroke-opacity:1"
               d="m 120.90776,158.67396 16.8736,-16.79816"
               id="path1910" />
          </g>
          <rect
             style="fill:#e31937;fill-opacity:1;stroke:none;stroke-width:0.151281;stroke-linejoin:round"
             id="rect1914"
             width="0.47032475"
             height="12.878349"
             x="2.2151494"
             y="150.23734" />
        </g>
        <g
           id="g2018"
           transform="matrix(0.68689584,0,0,0.68689584,50.760961,45.301636)">
          <g
             id="g1924"
             transform="translate(-93.545925,6.364106)">
            <circle
               style="fill:#e6e6e6;stroke:none;stroke-width:0.757646;stroke-linejoin:round"
               id="circle1918"
               cx="129.244"
               cy="150.31241"
               r="11.991" />
            <path
               style="fill:none;stroke:#4d4d4d;stroke-width:0.264583px;stroke-linecap:butt;stroke-linejoin:miter;stroke-opacity:1"
               d="m 120.98107,141.80072 16.79966,16.87324"
               id="path1920" />
            <path
               style="fill:none;stroke:#4d4d4d;stroke-width:0.264583px;stroke-linecap:butt;stroke-linejoin:miter;stroke-opacity:1"
               d="m 120.90776,158.67396 16.8736,-16.79816"
               id="path1922" />
          </g>
          <rect
             style="fill:#e31937;fill-opacity:1;stroke:none;stroke-width:0.151281;stroke-linejoin:round"
             id="rect1926"
             width="0.47032475"
             height="12.878349"
             x="30.829205"
             y="150.23734" />
        </g>
        <g
           id="g2011"
           transform="matrix(0.68689584,0,0,0.68689584,50.491891,45.301636)">
          <g
             id="g1936"
             transform="translate(-67.04856,6.364106)">
            <circle
               style="fill:#e6e6e6;stroke:none;stroke-width:0.757646;stroke-linejoin:round"
               id="circle1930"
               cx="129.244"
               cy="150.31241"
               r="11.991" />
            <path
               style="fill:none;stroke:#4d4d4d;stroke-width:0.264583px;stroke-linecap:butt;stroke-linejoin:miter;stroke-opacity:1"
               d="m 120.98107,141.80072 16.79966,16.87324"
               id="path1932" />
            <path
               style="fill:none;stroke:#4d4d4d;stroke-width:0.264583px;stroke-linecap:butt;stroke-linejoin:miter;stroke-opacity:1"
               d="m 120.90776,158.67396 16.8736,-16.79816"
               id="path1934" />
          </g>
          <rect
             style="fill:#e31937;fill-opacity:1;stroke:none;stroke-width:0.151281;stroke-linejoin:round"
             id="rect1938"
             width="0.47032475"
             height="12.878349"
             x="59.97245"
             y="150.23734" />
        </g>
        <g
           id="g2228">
          <g
             id="g2212"
             transform="matrix(0.68689584,0,0,0.68689584,112.02767,49.673114)">
            <circle
               style="fill:#e6e6e6;stroke:none;stroke-width:0.757646;stroke-linejoin:round"
               id="circle2206"
               cx="129.244"
               cy="150.31241"
               r="11.991" />
            <path
               style="fill:none;stroke:#4d4d4d;stroke-width:0.264583px;stroke-linecap:butt;stroke-linejoin:miter;stroke-opacity:1"
               d="m 120.98107,141.80072 16.79966,16.87324"
               id="path2208" />
            <path
               style="fill:none;stroke:#4d4d4d;stroke-width:0.264583px;stroke-linecap:butt;stroke-linejoin:miter;stroke-opacity:1"
               d="m 120.90776,158.67396 16.8736,-16.79816"
               id="path2210" />
          </g>
          <rect
             style="fill:#e31937;fill-opacity:1;stroke:none;stroke-width:0.103914;stroke-linejoin:round"
             id="rect2214"
             width="0.32306412"
             height="8.8460846"
             x="199.14433"
             y="148.49904" />
        </g>
      </g>
      <path
         style="fill:none;stroke:#000000;stroke-width:0.25;stroke-linecap:butt;stroke-linejoin:miter;stroke-dasharray:none;stroke-opacity:1"
         d="m 105.0851,160.36229 v 11.36607"
         id="path2300" />
      <g
         aria-label="Clockwise / Anti-clockwise"
         transform="matrix(0.26458333,0,0,0.26458333,-104.31729,-6.0425698)"
         id="text2354"
         style="font-size:14.6667px;line-height:1.25;white-space:pre;shape-inside:url(#rect2356);display:inline">
        <path
           d="m 528.47866,649.17917 q -1.67579,0 -2.60678,1.08139 -0.93099,1.07422 -0.93099,2.95052 0,1.85483 0.9668,2.98634 0.97396,1.12435 2.62826,1.12435 2.1198,0 3.18686,-2.09831 l 1.11719,0.55859 q -0.62305,1.30339 -1.75457,1.98373 -1.12435,0.68034 -2.61393,0.68034 -1.5254,0 -2.64259,-0.63021 -1.11003,-0.63737 -1.69727,-1.81185 -0.58008,-1.18164 -0.58008,-2.79298 0,-2.41341 1.30339,-3.78126 1.30339,-1.36784 3.60938,-1.36784 1.61134,0 2.69272,0.63021 1.08138,0.63021 1.58985,1.86915 l -1.29623,0.42969 q -0.35091,-0.88087 -1.13151,-1.34636 -0.77344,-0.4655 -1.8405,-0.4655 z"
           style="text-align:center;text-anchor:middle;fill:#008000"
           id="path5592" />
        <path
           d="m 534.38687,658.30289 v -10.62763 h 1.28907 v 10.62763 z"
           style="text-align:center;text-anchor:middle;fill:#008000"
           id="path5594" />
        <path
           d="m 544.19809,654.42137 q 0,2.03386 -0.89518,3.02931 -0.89518,0.99544 -2.59962,0.99544 -1.69726,0 -2.5638,-1.03125 -0.86654,-1.03841 -0.86654,-2.9935 0,-4.01042 3.47331,-4.01042 1.77605,0 2.61394,0.98112 0.83789,0.97396 0.83789,3.0293 z m -1.35351,0 q 0,-1.60417 -0.47982,-2.32748 -0.47266,-0.73047 -1.59701,-0.73047 -1.13151,0 -1.63998,0.7448 -0.5013,0.73763 -0.5013,2.31315 0,1.53256 0.49414,2.306 0.5013,0.76628 1.56836,0.76628 1.16016,0 1.6543,-0.7448 0.50131,-0.74479 0.50131,-2.32748 z"
           style="text-align:center;text-anchor:middle;fill:#008000"
           id="path5596" />
        <path
           d="m 546.78339,654.39273 q 0,1.54688 0.48698,2.29167 0.48698,0.74479 1.4681,0.74479 0.6875,0 1.14584,-0.37239 0.46549,-0.3724 0.57291,-1.14584 l 1.30339,0.0859 q -0.15039,1.11719 -0.95247,1.7832 -0.80209,0.66602 -2.03386,0.66602 -1.62566,0 -2.48503,-1.02409 -0.85222,-1.03125 -0.85222,-3.00066 0,-1.95508 0.85938,-2.97917 0.85937,-1.03125 2.46354,-1.03125 1.18881,0 1.96941,0.61588 0.78776,0.61589 0.98828,1.69727 l -1.32487,0.10026 q -0.10026,-0.64453 -0.50846,-1.02409 -0.40821,-0.37956 -1.16016,-0.37956 -1.02409,0 -1.48243,0.68034 -0.45833,0.68035 -0.45833,2.29168 z"
           style="text-align:center;text-anchor:middle;fill:#008000"
           id="path5598" />
        <path
           d="m 557.9911,658.30289 -2.6211,-3.53777 -0.94532,0.7806 v 2.75717 h -1.28906 v -10.62763 h 1.28906 v 6.63869 l 3.4017,-3.75977 h 1.51107 l -3.14388,3.33008 3.3086,4.41863 z"
           style="text-align:center;text-anchor:middle;fill:#008000"
           id="path5600" />
        <path
           d="m 567.88825,658.30289 h -1.49675 l -1.35351,-5.47853 -0.25782,-1.21029 q -0.0644,0.32227 -0.20052,0.931 -0.13607,0.60156 -1.46094,5.75782 h -1.48959 l -2.16992,-7.74871 h 1.27474 l 1.31055,5.26368 q 0.0501,0.17188 0.30794,1.41797 l 0.12175,-0.52995 1.61849,-6.1517 h 1.38217 l 1.35351,5.32097 0.32943,1.36068 0.22201,-0.99544 1.4681,-5.68621 h 1.26042 z"
           style="text-align:center;text-anchor:middle;fill:#008000"
           id="path5602" />
        <path
           d="m 571.05363,648.90704 v -1.23178 h 1.28906 v 1.23178 z m 0,9.39585 v -7.74871 h 1.28906 v 7.74871 z"
           style="text-align:center;text-anchor:middle;fill:#008000"
           id="path5604" />
        <path
           d="m 580.13437,656.16161 q 0,1.09571 -0.83073,1.69011 -0.82357,0.5944 -2.31315,0.5944 -1.44662,0 -2.23438,-0.47266 -0.7806,-0.47981 -1.01693,-1.48958 l 1.13867,-0.22201 q 0.16472,0.62305 0.68034,0.91667 0.51563,0.28646 1.4323,0.28646 0.98112,0 1.43229,-0.30078 0.45834,-0.30078 0.45834,-0.90235 0,-0.45833 -0.31511,-0.74479 -0.3151,-0.28646 -1.01693,-0.47266 l -0.92383,-0.24349 q -1.11003,-0.28646 -1.58268,-0.55859 -0.4655,-0.2793 -0.73047,-0.67318 -0.26498,-0.39388 -0.26498,-0.9668 0,-1.0599 0.75196,-1.61133 0.75911,-0.5586 2.20573,-0.5586 1.2819,0 2.03386,0.45117 0.75912,0.45118 0.95964,1.44662 l -1.16016,0.14323 q -0.10742,-0.51562 -0.58008,-0.78776 -0.4655,-0.2793 -1.25326,-0.2793 -0.8737,0 -1.28907,0.26498 -0.41536,0.26497 -0.41536,0.80208 0,0.32943 0.17187,0.54427 0.17188,0.21485 0.50847,0.36524 0.33659,0.15039 1.41797,0.41536 1.02409,0.25782 1.47527,0.47982 0.45117,0.21485 0.70898,0.47982 0.26498,0.26498 0.40821,0.61589 0.14322,0.34375 0.14322,0.78776 z"
           style="text-align:center;text-anchor:middle;fill:#008000"
           id="path5606" />
        <path
           d="m 582.64089,654.70067 q 0,1.33203 0.55144,2.05534 0.55143,0.72331 1.61133,0.72331 0.83789,0 1.33919,-0.33659 0.50847,-0.33659 0.6875,-0.85221 l 1.13152,0.32226 q -0.69467,1.83334 -3.15821,1.83334 -1.71876,0 -2.6211,-1.02409 -0.89519,-1.02409 -0.89519,-3.04363 0,-1.91927 0.89519,-2.94336 0.90234,-1.02409 2.57097,-1.02409 3.41602,0 3.41602,4.11784 v 0.17188 z m 4.19663,-0.98828 q -0.10743,-1.22462 -0.62305,-1.78321 -0.51563,-0.56576 -1.48243,-0.56576 -0.93815,0 -1.48958,0.63021 -0.54428,0.62305 -0.58725,1.71876 z"
           style="text-align:center;text-anchor:middle;fill:#008000"
           id="path5608" />
        <path
           d="m 592.89613,658.44612 2.94336,-10.77086 h 1.13151 l -2.91472,10.77086 z"
           style="text-align:center;text-anchor:middle"
           id="path5610" />
        <path
           d="m 609.40332,658.30289 -1.15299,-2.95053 h -4.59767 l -1.16016,2.95053 h -1.41797 l 4.11785,-10.09052 h 1.55404 l 4.05339,10.09052 z m -3.45183,-9.05926 -0.0645,0.20052 q -0.17904,0.5944 -0.52995,1.52539 l -1.28907,3.31576 h 3.7741 l -1.29622,-3.33008 q -0.20053,-0.49414 -0.40105,-1.11719 z"
           style="text-align:center;text-anchor:middle;fill:#800080"
           id="path5612" />
        <path
           d="m 616.73668,658.30289 v -4.91277 q 0,-0.76628 -0.15039,-1.1888 -0.1504,-0.42253 -0.47982,-0.60873 -0.32943,-0.1862 -0.9668,-0.1862 -0.93099,0 -1.4681,0.63737 -0.53712,0.63737 -0.53712,1.76889 v 4.49024 h -1.28906 v -6.09441 q 0,-1.35352 -0.043,-1.6543 h 1.21745 q 0.007,0.0358 0.0143,0.19336 0.007,0.15755 0.0143,0.36523 0.0143,0.20052 0.0286,0.76628 h 0.0215 q 0.44401,-0.80209 1.02409,-1.13151 0.58724,-0.33659 1.45378,-0.33659 1.27474,0 1.86198,0.63737 0.5944,0.63021 0.5944,2.09115 v 5.16342 z"
           style="text-align:center;text-anchor:middle;fill:#800080"
           id="path5614" />
        <path
           d="m 622.95283,658.2456 q -0.63737,0.17188 -1.30339,0.17188 -1.54688,0 -1.54688,-1.75457 v -5.17058 h -0.89518 v -0.93815 h 0.94531 l 0.37956,-1.73308 h 0.85938 v 1.73308 h 1.43229 v 0.93815 h -1.43229 v 4.89129 q 0,0.55859 0.17904,0.78776 0.18619,0.222 0.63737,0.222 0.25781,0 0.74479,-0.10026 z"
           style="text-align:center;text-anchor:middle;fill:#800080"
           id="path5616" />
        <path
           d="m 624.04138,648.90704 v -1.23178 h 1.28906 v 1.23178 z m 0,9.39585 v -7.74871 h 1.28906 v 7.74871 z"
           style="text-align:center;text-anchor:middle;fill:#800080"
           id="path5618" />
        <path
           d="m 626.97042,654.97997 v -1.14584 h 3.58074 v 1.14584 z"
           style="text-align:center;text-anchor:middle;fill:#800080"
           id="path5620" />
        <path
           d="m 633.17226,654.39273 q 0,1.54688 0.48698,2.29167 0.48698,0.74479 1.4681,0.74479 0.6875,0 1.14583,-0.37239 0.4655,-0.3724 0.57292,-1.14584 l 1.30339,0.0859 q -0.15039,1.11719 -0.95248,1.7832 -0.80208,0.66602 -2.03385,0.66602 -1.62566,0 -2.48504,-1.02409 -0.85221,-1.03125 -0.85221,-3.00066 0,-1.95508 0.85937,-2.97917 0.85938,-1.03125 2.46355,-1.03125 1.18881,0 1.96941,0.61588 0.78776,0.61589 0.98828,1.69727 l -1.32487,0.10026 q -0.10026,-0.64453 -0.50847,-1.02409 -0.4082,-0.37956 -1.16016,-0.37956 -1.02409,0 -1.48242,0.68034 -0.45833,0.68035 -0.45833,2.29168 z"
           style="text-align:center;text-anchor:middle;fill:#800080"
           id="path5622" />
        <path
           d="m 639.52448,658.30289 v -10.62763 h 1.28907 v 10.62763 z"
           style="text-align:center;text-anchor:middle;fill:#800080"
           id="path5624" />
        <path
           d="m 649.3357,654.42137 q 0,2.03386 -0.89518,3.02931 -0.89519,0.99544 -2.59962,0.99544 -1.69727,0 -2.56381,-1.03125 -0.86653,-1.03841 -0.86653,-2.9935 0,-4.01042 3.47331,-4.01042 1.77605,0 2.61394,0.98112 0.83789,0.97396 0.83789,3.0293 z m -1.35352,0 q 0,-1.60417 -0.47982,-2.32748 -0.47265,-0.73047 -1.597,-0.73047 -1.13152,0 -1.63998,0.7448 -0.50131,0.73763 -0.50131,2.31315 0,1.53256 0.49415,2.306 0.5013,0.76628 1.56836,0.76628 1.16016,0 1.6543,-0.7448 0.5013,-0.74479 0.5013,-2.32748 z"
           style="text-align:center;text-anchor:middle;fill:#800080"
           id="path5626" />
        <path
           d="m 651.921,654.39273 q 0,1.54688 0.48698,2.29167 0.48698,0.74479 1.4681,0.74479 0.6875,0 1.14583,-0.37239 0.4655,-0.3724 0.57292,-1.14584 l 1.30339,0.0859 q -0.15039,1.11719 -0.95247,1.7832 -0.80209,0.66602 -2.03386,0.66602 -1.62566,0 -2.48504,-1.02409 -0.85221,-1.03125 -0.85221,-3.00066 0,-1.95508 0.85938,-2.97917 0.85937,-1.03125 2.46354,-1.03125 1.18881,0 1.96941,0.61588 0.78776,0.61589 0.98828,1.69727 l -1.32487,0.10026 q -0.10026,-0.64453 -0.50847,-1.02409 -0.4082,-0.37956 -1.16015,-0.37956 -1.02409,0 -1.48243,0.68034 -0.45833,0.68035 -0.45833,2.29168 z"
           style="text-align:center;text-anchor:middle;fill:#800080"
           id="path5628" />
        <path
           d="m 663.12871,658.30289 -2.6211,-3.53777 -0.94531,0.7806 v 2.75717 h -1.28907 v -10.62763 h 1.28907 v 6.63869 l 3.4017,-3.75977 h 1.51107 l -3.14389,3.33008 3.3086,4.41863 z"
           style="text-align:center;text-anchor:middle;fill:#800080"
           id="path5630" />
        <path
           d="m 673.02586,658.30289 h -1.49674 l -1.35352,-5.47853 -0.25782,-1.21029 q -0.0644,0.32227 -0.20052,0.931 -0.13606,0.60156 -1.46094,5.75782 h -1.48958 l -2.16993,-7.74871 h 1.27474 l 1.31055,5.26368 q 0.0501,0.17188 0.30794,1.41797 l 0.12175,-0.52995 1.61849,-6.1517 h 1.38217 l 1.35352,5.32097 0.32942,1.36068 0.22201,-0.99544 1.4681,-5.68621 h 1.26042 z"
           style="text-align:center;text-anchor:middle;fill:#800080"
           id="path5632" />
        <path
           d="m 676.19124,648.90704 v -1.23178 h 1.28907 v 1.23178 z m 0,9.39585 v -7.74871 h 1.28907 v 7.74871 z"
           style="text-align:center;text-anchor:middle;fill:#800080"
           id="path5634" />
        <path
           d="m 685.27199,656.16161 q 0,1.09571 -0.83073,1.69011 -0.82357,0.5944 -2.31316,0.5944 -1.44662,0 -2.23438,-0.47266 -0.7806,-0.47981 -1.01693,-1.48958 l 1.13868,-0.22201 q 0.16471,0.62305 0.68034,0.91667 0.51562,0.28646 1.43229,0.28646 0.98112,0 1.4323,-0.30078 0.45833,-0.30078 0.45833,-0.90235 0,-0.45833 -0.3151,-0.74479 -0.31511,-0.28646 -1.01693,-0.47266 l -0.92383,-0.24349 q -1.11003,-0.28646 -1.58269,-0.55859 -0.46549,-0.2793 -0.73047,-0.67318 -0.26497,-0.39388 -0.26497,-0.9668 0,-1.0599 0.75195,-1.61133 0.75912,-0.5586 2.20574,-0.5586 1.2819,0 2.03385,0.45117 0.75912,0.45118 0.95964,1.44662 l -1.16016,0.14323 q -0.10742,-0.51562 -0.58008,-0.78776 -0.46549,-0.2793 -1.25325,-0.2793 -0.8737,0 -1.28907,0.26498 -0.41537,0.26497 -0.41537,0.80208 0,0.32943 0.17188,0.54427 0.17188,0.21485 0.50846,0.36524 0.33659,0.15039 1.41798,0.41536 1.02409,0.25782 1.47526,0.47982 0.45117,0.21485 0.70899,0.47982 0.26497,0.26498 0.4082,0.61589 0.14323,0.34375 0.14323,0.78776 z"
           style="text-align:center;text-anchor:middle;fill:#800080"
           id="path5636" />
        <path
           d="m 687.7785,654.70067 q 0,1.33203 0.55143,2.05534 0.55144,0.72331 1.61133,0.72331 0.8379,0 1.3392,-0.33659 0.50847,-0.33659 0.6875,-0.85221 l 1.13152,0.32226 q -0.69467,1.83334 -3.15822,1.83334 -1.71875,0 -2.62109,-1.02409 -0.89519,-1.02409 -0.89519,-3.04363 0,-1.91927 0.89519,-2.94336 0.90234,-1.02409 2.57096,-1.02409 3.41603,0 3.41603,4.11784 v 0.17188 z m 4.19662,-0.98828 q -0.10742,-1.22462 -0.62304,-1.78321 -0.51563,-0.56576 -1.48243,-0.56576 -0.93815,0 -1.48959,0.63021 -0.54427,0.62305 -0.58724,1.71876 z"
           style="text-align:center;text-anchor:middle;fill:#800080"
           id="path5638" />
      </g>
      <g
         aria-label="Anti-Clockwise / Clockwise"
         transform="matrix(0.26458333,0,0,0.26458333,-13.637734,-6.0425698)"
         id="text2362"
         style="font-size:14.6667px;line-height:1.25;white-space:pre;shape-inside:url(#rect2364);display:inline">
        <path
           d="m 529.53498,658.30289 -1.153,-2.95053 h -4.59767 l -1.16016,2.95053 h -1.41797 l 4.11785,-10.09052 h 1.55404 l 4.05339,10.09052 z m -3.45184,-9.05926 -0.0644,0.20052 q -0.17904,0.5944 -0.52995,1.52539 l -1.28906,3.31576 h 3.77409 l -1.29622,-3.33008 q -0.20052,-0.49414 -0.40105,-1.11719 z"
           style="text-align:center;text-anchor:middle;fill:#008000"
           id="path5641" />
        <path
           d="m 536.86833,658.30289 v -4.91277 q 0,-0.76628 -0.1504,-1.1888 -0.15039,-0.42253 -0.47981,-0.60873 -0.32943,-0.1862 -0.9668,-0.1862 -0.931,0 -1.46811,0.63737 -0.53711,0.63737 -0.53711,1.76889 v 4.49024 h -1.28906 v -6.09441 q 0,-1.35352 -0.043,-1.6543 h 1.21745 q 0.007,0.0358 0.0143,0.19336 0.007,0.15755 0.0143,0.36523 0.0143,0.20052 0.0286,0.76628 h 0.0215 q 0.44401,-0.80209 1.02409,-1.13151 0.58724,-0.33659 1.45378,-0.33659 1.27474,0 1.86198,0.63737 0.5944,0.63021 0.5944,2.09115 v 5.16342 z"
           style="text-align:center;text-anchor:middle;fill:#008000"
           id="path5643" />
        <path
           d="m 543.08449,658.2456 q -0.63738,0.17188 -1.30339,0.17188 -1.54688,0 -1.54688,-1.75457 v -5.17058 h -0.89519 v -0.93815 h 0.94532 l 0.37956,-1.73308 h 0.85937 v 1.73308 h 1.4323 v 0.93815 h -1.4323 v 4.89129 q 0,0.55859 0.17904,0.78776 0.1862,0.222 0.63737,0.222 0.25782,0 0.7448,-0.10026 z"
           style="text-align:center;text-anchor:middle;fill:#008000"
           id="path5645" />
        <path
           d="m 544.17303,648.90704 v -1.23178 h 1.28907 v 1.23178 z m 0,9.39585 v -7.74871 h 1.28907 v 7.74871 z"
           style="text-align:center;text-anchor:middle;fill:#008000"
           id="path5647" />
        <path
           d="m 547.10207,654.97997 v -1.14584 h 3.58074 v 1.14584 z"
           style="text-align:center;text-anchor:middle;fill:#008000"
           id="path5649" />
        <path
           d="m 557.00639,649.17917 q -1.67578,0 -2.60677,1.08139 -0.931,1.07422 -0.931,2.95052 0,1.85483 0.9668,2.98634 0.97396,1.12435 2.62826,1.12435 2.1198,0 3.18686,-2.09831 l 1.11719,0.55859 q -0.62305,1.30339 -1.75456,1.98373 -1.12435,0.68034 -2.61394,0.68034 -1.52539,0 -2.64258,-0.63021 -1.11003,-0.63737 -1.69727,-1.81185 -0.58008,-1.18164 -0.58008,-2.79298 0,-2.41341 1.30339,-3.78126 1.30339,-1.36784 3.60938,-1.36784 1.61133,0 2.69271,0.63021 1.08139,0.63021 1.58985,1.86915 l -1.29622,0.42969 q -0.35092,-0.88087 -1.13152,-1.34636 -0.77344,-0.4655 -1.8405,-0.4655 z"
           style="text-align:center;text-anchor:middle;fill:#008000"
           id="path5651" />
        <path
           d="m 562.91461,658.30289 v -10.62763 h 1.28906 v 10.62763 z"
           style="text-align:center;text-anchor:middle;fill:#008000"
           id="path5653" />
        <path
           d="m 572.72583,654.42137 q 0,2.03386 -0.89518,3.02931 -0.89519,0.99544 -2.59962,0.99544 -1.69727,0 -2.56381,-1.03125 -0.86654,-1.03841 -0.86654,-2.9935 0,-4.01042 3.47332,-4.01042 1.77605,0 2.61394,0.98112 0.83789,0.97396 0.83789,3.0293 z m -1.35352,0 q 0,-1.60417 -0.47982,-2.32748 -0.47265,-0.73047 -1.59701,-0.73047 -1.13151,0 -1.63997,0.7448 -0.50131,0.73763 -0.50131,2.31315 0,1.53256 0.49414,2.306 0.50131,0.76628 1.56837,0.76628 1.16016,0 1.6543,-0.7448 0.5013,-0.74479 0.5013,-2.32748 z"
           style="text-align:center;text-anchor:middle;fill:#008000"
           id="path5655" />
        <path
           d="m 575.31112,654.39273 q 0,1.54688 0.48698,2.29167 0.48698,0.74479 1.4681,0.74479 0.6875,0 1.14584,-0.37239 0.46549,-0.3724 0.57292,-1.14584 l 1.30339,0.0859 q -0.1504,1.11719 -0.95248,1.7832 -0.80209,0.66602 -2.03386,0.66602 -1.62565,0 -2.48503,-1.02409 -0.85222,-1.03125 -0.85222,-3.00066 0,-1.95508 0.85938,-2.97917 0.85938,-1.03125 2.46355,-1.03125 1.1888,0 1.9694,0.61588 0.78777,0.61589 0.98829,1.69727 l -1.32488,0.10026 q -0.10026,-0.64453 -0.50846,-1.02409 -0.40821,-0.37956 -1.16016,-0.37956 -1.02409,0 -1.48243,0.68034 -0.45833,0.68035 -0.45833,2.29168 z"
           style="text-align:center;text-anchor:middle;fill:#008000"
           id="path5657" />
        <path
           d="m 586.51883,658.30289 -2.6211,-3.53777 -0.94532,0.7806 v 2.75717 h -1.28906 v -10.62763 h 1.28906 v 6.63869 l 3.40171,-3.75977 h 1.51107 l -3.14389,3.33008 3.3086,4.41863 z"
           style="text-align:center;text-anchor:middle;fill:#008000"
           id="path5659" />
        <path
           d="m 596.41598,658.30289 h -1.49674 l -1.35352,-5.47853 -0.25782,-1.21029 q -0.0644,0.32227 -0.20052,0.931 -0.13606,0.60156 -1.46094,5.75782 h -1.48958 l -2.16993,-7.74871 h 1.27474 l 1.31055,5.26368 q 0.0501,0.17188 0.30794,1.41797 l 0.12175,-0.52995 1.61849,-6.1517 h 1.38217 l 1.35352,5.32097 0.32942,1.36068 0.22201,-0.99544 1.4681,-5.68621 h 1.26042 z"
           style="text-align:center;text-anchor:middle;fill:#008000"
           id="path5661" />
        <path
           d="m 599.58136,648.90704 v -1.23178 h 1.28907 v 1.23178 z m 0,9.39585 v -7.74871 h 1.28907 v 7.74871 z"
           style="text-align:center;text-anchor:middle;fill:#008000"
           id="path5663" />
        <path
           d="m 608.66211,656.16161 q 0,1.09571 -0.83073,1.69011 -0.82357,0.5944 -2.31316,0.5944 -1.44662,0 -2.23438,-0.47266 -0.7806,-0.47981 -1.01693,-1.48958 l 1.13868,-0.22201 q 0.16471,0.62305 0.68034,0.91667 0.51562,0.28646 1.43229,0.28646 0.98112,0 1.4323,-0.30078 0.45833,-0.30078 0.45833,-0.90235 0,-0.45833 -0.3151,-0.74479 -0.31511,-0.28646 -1.01693,-0.47266 l -0.92383,-0.24349 q -1.11003,-0.28646 -1.58269,-0.55859 -0.46549,-0.2793 -0.73047,-0.67318 -0.26497,-0.39388 -0.26497,-0.9668 0,-1.0599 0.75195,-1.61133 0.75912,-0.5586 2.20574,-0.5586 1.2819,0 2.03385,0.45117 0.75912,0.45118 0.95964,1.44662 l -1.16016,0.14323 q -0.10742,-0.51562 -0.58008,-0.78776 -0.46549,-0.2793 -1.25325,-0.2793 -0.8737,0 -1.28907,0.26498 -0.41537,0.26497 -0.41537,0.80208 0,0.32943 0.17188,0.54427 0.17188,0.21485 0.50846,0.36524 0.33659,0.15039 1.41798,0.41536 1.02409,0.25782 1.47526,0.47982 0.45117,0.21485 0.70899,0.47982 0.26497,0.26498 0.4082,0.61589 0.14323,0.34375 0.14323,0.78776 z"
           style="text-align:center;text-anchor:middle;fill:#008000"
           id="path5665" />
        <path
           d="m 611.16863,654.70067 q 0,1.33203 0.55143,2.05534 0.55143,0.72331 1.61133,0.72331 0.8379,0 1.3392,-0.33659 0.50846,-0.33659 0.6875,-0.85221 l 1.13151,0.32226 q -0.69466,1.83334 -3.15821,1.83334 -1.71875,0 -2.6211,-1.02409 -0.89518,-1.02409 -0.89518,-3.04363 0,-1.91927 0.89518,-2.94336 0.90235,-1.02409 2.57097,-1.02409 3.41603,0 3.41603,4.11784 v 0.17188 z m 4.19662,-0.98828 q -0.10742,-1.22462 -0.62305,-1.78321 -0.51562,-0.56576 -1.48242,-0.56576 -0.93816,0 -1.48959,0.63021 -0.54427,0.62305 -0.58724,1.71876 z"
           style="text-align:center;text-anchor:middle;fill:#008000"
           id="path5667" />
        <path
           d="m 621.42386,658.44612 2.94336,-10.77086 h 1.13152 l -2.91472,10.77086 z"
           style="text-align:center;text-anchor:middle"
           id="path5669" />
        <path
           d="m 635.2455,649.17917 q -1.67578,0 -2.60677,1.08139 -0.931,1.07422 -0.931,2.95052 0,1.85483 0.9668,2.98634 0.97396,1.12435 2.62826,1.12435 2.1198,0 3.18686,-2.09831 l 1.11719,0.55859 q -0.62305,1.30339 -1.75456,1.98373 -1.12435,0.68034 -2.61394,0.68034 -1.52539,0 -2.64258,-0.63021 -1.11003,-0.63737 -1.69727,-1.81185 -0.58008,-1.18164 -0.58008,-2.79298 0,-2.41341 1.30339,-3.78126 1.30338,-1.36784 3.60938,-1.36784 1.61133,0 2.69271,0.63021 1.08139,0.63021 1.58985,1.86915 l -1.29623,0.42969 q -0.35091,-0.88087 -1.13151,-1.34636 -0.77344,-0.4655 -1.8405,-0.4655 z"
           style="text-align:center;text-anchor:middle;fill:#800080"
           id="path5671" />
        <path
           d="m 641.15372,658.30289 v -10.62763 h 1.28907 v 10.62763 z"
           style="text-align:center;text-anchor:middle;fill:#800080"
           id="path5673" />
        <path
           d="m 650.96494,654.42137 q 0,2.03386 -0.89518,3.02931 -0.89519,0.99544 -2.59962,0.99544 -1.69727,0 -2.5638,-1.03125 -0.86654,-1.03841 -0.86654,-2.9935 0,-4.01042 3.47331,-4.01042 1.77605,0 2.61394,0.98112 0.83789,0.97396 0.83789,3.0293 z m -1.35352,0 q 0,-1.60417 -0.47981,-2.32748 -0.47266,-0.73047 -1.59701,-0.73047 -1.13152,0 -1.63998,0.7448 -0.5013,0.73763 -0.5013,2.31315 0,1.53256 0.49414,2.306 0.5013,0.76628 1.56836,0.76628 1.16016,0 1.6543,-0.7448 0.5013,-0.74479 0.5013,-2.32748 z"
           style="text-align:center;text-anchor:middle;fill:#800080"
           id="path5675" />
        <path
           d="m 653.55023,654.39273 q 0,1.54688 0.48698,2.29167 0.48698,0.74479 1.4681,0.74479 0.6875,0 1.14584,-0.37239 0.46549,-0.3724 0.57292,-1.14584 l 1.30338,0.0859 q -0.15039,1.11719 -0.95247,1.7832 -0.80209,0.66602 -2.03386,0.66602 -1.62566,0 -2.48503,-1.02409 -0.85222,-1.03125 -0.85222,-3.00066 0,-1.95508 0.85938,-2.97917 0.85938,-1.03125 2.46355,-1.03125 1.1888,0 1.9694,0.61588 0.78776,0.61589 0.98829,1.69727 l -1.32488,0.10026 q -0.10026,-0.64453 -0.50846,-1.02409 -0.40821,-0.37956 -1.16016,-0.37956 -1.02409,0 -1.48243,0.68034 -0.45833,0.68035 -0.45833,2.29168 z"
           style="text-align:center;text-anchor:middle;fill:#800080"
           id="path5677" />
        <path
           d="m 664.75795,658.30289 -2.6211,-3.53777 -0.94532,0.7806 v 2.75717 h -1.28906 v -10.62763 h 1.28906 v 6.63869 l 3.4017,-3.75977 h 1.51107 l -3.14388,3.33008 3.3086,4.41863 z"
           style="text-align:center;text-anchor:middle;fill:#800080"
           id="path5679" />
        <path
           d="m 674.6551,658.30289 h -1.49675 l -1.35352,-5.47853 -0.25781,-1.21029 q -0.0645,0.32227 -0.20052,0.931 -0.13607,0.60156 -1.46094,5.75782 h -1.48959 l -2.16993,-7.74871 h 1.27474 l 1.31055,5.26368 q 0.0501,0.17188 0.30795,1.41797 l 0.12174,-0.52995 1.6185,-6.1517 h 1.38216 l 1.35352,5.32097 0.32943,1.36068 0.222,-0.99544 1.46811,-5.68621 h 1.26041 z"
           style="text-align:center;text-anchor:middle;fill:#800080"
           id="path5681" />
        <path
           d="m 677.82048,648.90704 v -1.23178 h 1.28906 v 1.23178 z m 0,9.39585 v -7.74871 h 1.28906 v 7.74871 z"
           style="text-align:center;text-anchor:middle;fill:#800080"
           id="path5683" />
        <path
           d="m 686.90122,656.16161 q 0,1.09571 -0.83073,1.69011 -0.82357,0.5944 -2.31315,0.5944 -1.44662,0 -2.23438,-0.47266 -0.78061,-0.47981 -1.01693,-1.48958 l 1.13867,-0.22201 q 0.16471,0.62305 0.68034,0.91667 0.51563,0.28646 1.4323,0.28646 0.98112,0 1.43229,-0.30078 0.45834,-0.30078 0.45834,-0.90235 0,-0.45833 -0.31511,-0.74479 -0.3151,-0.28646 -1.01693,-0.47266 l -0.92383,-0.24349 q -1.11003,-0.28646 -1.58269,-0.55859 -0.46549,-0.2793 -0.73047,-0.67318 -0.26497,-0.39388 -0.26497,-0.9668 0,-1.0599 0.75195,-1.61133 0.75912,-0.5586 2.20574,-0.5586 1.2819,0 2.03386,0.45117 0.75911,0.45118 0.95964,1.44662 l -1.16016,0.14323 q -0.10743,-0.51562 -0.58008,-0.78776 -0.4655,-0.2793 -1.25326,-0.2793 -0.8737,0 -1.28907,0.26498 -0.41536,0.26497 -0.41536,0.80208 0,0.32943 0.17187,0.54427 0.17188,0.21485 0.50847,0.36524 0.33659,0.15039 1.41797,0.41536 1.02409,0.25782 1.47526,0.47982 0.45118,0.21485 0.70899,0.47982 0.26497,0.26498 0.4082,0.61589 0.14323,0.34375 0.14323,0.78776 z"
           style="text-align:center;text-anchor:middle;fill:#800080"
           id="path5685" />
        <path
           d="m 689.40773,654.70067 q 0,1.33203 0.55144,2.05534 0.55143,0.72331 1.61133,0.72331 0.83789,0 1.33919,-0.33659 0.50847,-0.33659 0.68751,-0.85221 l 1.13151,0.32226 q -0.69466,1.83334 -3.15821,1.83334 -1.71876,0 -2.6211,-1.02409 -0.89519,-1.02409 -0.89519,-3.04363 0,-1.91927 0.89519,-2.94336 0.90234,-1.02409 2.57097,-1.02409 3.41602,0 3.41602,4.11784 v 0.17188 z m 4.19663,-0.98828 q -0.10743,-1.22462 -0.62305,-1.78321 -0.51563,-0.56576 -1.48243,-0.56576 -0.93815,0 -1.48958,0.63021 -0.54428,0.62305 -0.58724,1.71876 z"
           style="text-align:center;text-anchor:middle;fill:#800080"
           id="path5687" />
      </g>
      <path
         style="fill:none;stroke:#000000;stroke-width:0.271863px;stroke-linecap:butt;stroke-linejoin:miter;stroke-dasharray:2.1749, 1.08744;stroke-dashoffset:0;stroke-opacity:1;marker-start:url(#EmptyTriangleIn);marker-end:url(#EmptyTriangleIn)"
         d="m 106.77382,169.75153 h 86.23377"
         id="path2494" />
      <path
         style="fill:none;stroke:#000000;stroke-width:0.277258px;stroke-linecap:butt;stroke-linejoin:miter;stroke-dasharray:2.21805, 1.10903;stroke-dashoffset:0;stroke-opacity:1;marker-start:url(#EmptyTriangleIn);marker-end:url(#EmptyTriangleIn)"
         d="M 103.70226,169.75154 H 14.012439"
         id="path2719" />
      <path
         style="fill:none;stroke:#000000;stroke-width:0.207518px;stroke-linecap:butt;stroke-linejoin:miter;stroke-opacity:1;marker-start:url(#EmptyTriangleIn)"
         d="m 141.72823,146.48514 v -3.71172"
         id="path2727" />
      <g
         transform="matrix(0.43625106,0,0,0.43625106,133.12012,138.90683)"
         ns1:version="1.8.2"
         ns1:texconverter="pdflatex"
         ns1:pdfconverter="inkscape"
         ns1:text="$i=e$"
         ns1:preamble="/home/sanatan/.config/inkscape/extensions/textext/default_packages.tex"
         ns1:scale="1.0"
         ns1:alignment="middle center"
         ns1:stroke-to-path="0"
         ns1:inkscapeversion="1.2.2"
         ns1:jacobian_sqrt="0.352778"
         id="g2981">
        <defs
           id="id-54285d2e-c091-4167-b3ce-9865068ea959">
          <g
             id="id-ac72a055-0339-41f4-84c4-880ae89b7071">
            <g
               id="id-49f8fce7-68a5-474b-8017-82e7f111260e" />
            <g
               id="id-315f70f5-cab8-4a49-8bdd-d1249a2d4714">
              <path
                 d="m 2.828125,-6.234375 c 0,-0.203125 -0.140625,-0.359375 -0.359375,-0.359375 -0.28125,0 -0.546875,0.265625 -0.546875,0.53125 0,0.1875 0.140625,0.359375 0.375,0.359375 0.234375,0 0.53125,-0.234375 0.53125,-0.53125 z m -0.75,3.75 c 0.109375,-0.28125 0.109375,-0.3125 0.21875,-0.578125 0.078125,-0.203125 0.125,-0.34375 0.125,-0.53125 0,-0.4375 -0.3125,-0.8125 -0.8125,-0.8125 -0.9375,0 -1.3125,1.453125 -1.3125,1.53125 0,0.109375 0.09375,0.109375 0.109375,0.109375 0.109375,0 0.109375,-0.03125 0.15625,-0.1875 0.28125,-0.9375 0.671875,-1.234375 1.015625,-1.234375 0.078125,0 0.25,0 0.25,0.3125 0,0.21875 -0.078125,0.421875 -0.109375,0.53125 -0.078125,0.25 -0.53125,1.40625 -0.6875,1.84375 -0.109375,0.25 -0.234375,0.578125 -0.234375,0.796875 0,0.46875 0.34375,0.8125 0.8125,0.8125 0.9375,0 1.3125,-1.4375 1.3125,-1.53125 0,-0.109375 -0.09375,-0.109375 -0.125,-0.109375 -0.09375,0 -0.09375,0.03125 -0.140625,0.1875 -0.1875,0.625 -0.515625,1.234375 -1.015625,1.234375 -0.171875,0 -0.25,-0.09375 -0.25,-0.328125 0,-0.25 0.0625,-0.390625 0.296875,-1 z m 0,0"
                 id="id-ed82b948-5620-4c4a-a7ef-19e665d414ac" />
            </g>
            <g
               id="id-57996ab6-9057-40aa-91c9-fa75e3645663">
              <path
                 d="m 1.859375,-2.296875 c 0.296875,0 1.03125,-0.03125 1.53125,-0.234375 0.703125,-0.296875 0.75,-0.890625 0.75,-1.03125 0,-0.4375 -0.375,-0.84375 -1.0625,-0.84375 -1.109375,0 -2.625,0.96875 -2.625,2.71875 0,1.015625 0.59375,1.796875 1.578125,1.796875 1.421875,0 2.25,-1.0625 2.25,-1.171875 0,-0.0625 -0.046875,-0.140625 -0.109375,-0.140625 -0.0625,0 -0.078125,0.03125 -0.140625,0.109375 -0.78125,0.984375 -1.875,0.984375 -1.984375,0.984375 -0.78125,0 -0.875,-0.84375 -0.875,-1.15625 0,-0.125 0.015625,-0.421875 0.15625,-1.03125 z m -0.46875,-0.21875 C 1.78125,-4.03125 2.8125,-4.1875 3.078125,-4.1875 c 0.453125,0 0.734375,0.296875 0.734375,0.625 0,1.046875 -1.59375,1.046875 -2.015625,1.046875 z m 0,0"
                 id="id-b9ebf5d2-9a7d-4979-b520-e7a879c12182" />
            </g>
            <g
               id="id-cd8eeca8-8d8f-4155-8627-28cca11800d6" />
            <g
               id="id-01c4d9f4-c97f-4a42-b654-ff06b14a8cbc">
              <path
                 d="m 6.84375,-3.265625 c 0.15625,0 0.34375,0 0.34375,-0.1875 C 7.1875,-3.65625 7,-3.65625 6.859375,-3.65625 h -5.96875 c -0.140625,0 -0.328125,0 -0.328125,0.203125 0,0.1875 0.1875,0.1875 0.328125,0.1875 z m 0.015625,1.9375 c 0.140625,0 0.328125,0 0.328125,-0.203125 0,-0.1875 -0.1875,-0.1875 -0.34375,-0.1875 H 0.890625 c -0.140625,0 -0.328125,0 -0.328125,0.1875 0,0.203125 0.1875,0.203125 0.328125,0.203125 z m 0,0"
                 id="id-96f9701c-8f65-4272-b09b-450d9947657c" />
            </g>
          </g>
        </defs>
        <g
           fill="#000000"
           fill-opacity="1"
           id="id-f8c1bd2f-72ec-4e1f-a019-88dc9504ed18"
           transform="translate(-149.009,-128.171)">
          <g
             transform="translate(148.712,134.765)"
             id="g2970">
            <path
               d="m 2.828125,-6.234375 c 0,-0.203125 -0.140625,-0.359375 -0.359375,-0.359375 -0.28125,0 -0.546875,0.265625 -0.546875,0.53125 0,0.1875 0.140625,0.359375 0.375,0.359375 0.234375,0 0.53125,-0.234375 0.53125,-0.53125 z m -0.75,3.75 c 0.109375,-0.28125 0.109375,-0.3125 0.21875,-0.578125 0.078125,-0.203125 0.125,-0.34375 0.125,-0.53125 0,-0.4375 -0.3125,-0.8125 -0.8125,-0.8125 -0.9375,0 -1.3125,1.453125 -1.3125,1.53125 0,0.109375 0.09375,0.109375 0.109375,0.109375 0.109375,0 0.109375,-0.03125 0.15625,-0.1875 0.28125,-0.9375 0.671875,-1.234375 1.015625,-1.234375 0.078125,0 0.25,0 0.25,0.3125 0,0.21875 -0.078125,0.421875 -0.109375,0.53125 -0.078125,0.25 -0.53125,1.40625 -0.6875,1.84375 -0.109375,0.25 -0.234375,0.578125 -0.234375,0.796875 0,0.46875 0.34375,0.8125 0.8125,0.8125 0.9375,0 1.3125,-1.4375 1.3125,-1.53125 0,-0.109375 -0.09375,-0.109375 -0.125,-0.109375 -0.09375,0 -0.09375,0.03125 -0.140625,0.1875 -0.1875,0.625 -0.515625,1.234375 -1.015625,1.234375 -0.171875,0 -0.25,-0.09375 -0.25,-0.328125 0,-0.25 0.0625,-0.390625 0.296875,-1 z m 0,0"
               id="id-a4cfcb45-dcb6-44f5-a628-d853c53aa073" />
          </g>
        </g>
        <g
           fill="#000000"
           fill-opacity="1"
           id="id-b97e287a-d016-4ec8-a53d-8b8e846c4bce"
           transform="translate(-149.009,-128.171)">
          <g
             transform="translate(154.912,134.765)"
             id="g2974">
            <path
               d="m 6.84375,-3.265625 c 0.15625,0 0.34375,0 0.34375,-0.1875 C 7.1875,-3.65625 7,-3.65625 6.859375,-3.65625 h -5.96875 c -0.140625,0 -0.328125,0 -0.328125,0.203125 0,0.1875 0.1875,0.1875 0.328125,0.1875 z m 0.015625,1.9375 c 0.140625,0 0.328125,0 0.328125,-0.203125 0,-0.1875 -0.1875,-0.1875 -0.34375,-0.1875 H 0.890625 c -0.140625,0 -0.328125,0 -0.328125,0.1875 0,0.203125 0.1875,0.203125 0.328125,0.203125 z m 0,0"
               id="id-1de9e5b9-c85d-4dda-a890-d415e902f5e0" />
          </g>
        </g>
        <g
           fill="#000000"
           fill-opacity="1"
           id="id-d16a64b5-ccc7-4367-9f02-483798aae39c"
           transform="translate(-149.009,-128.171)">
          <g
             transform="translate(165.428,134.765)"
             id="g2978">
            <path
               d="m 1.859375,-2.296875 c 0.296875,0 1.03125,-0.03125 1.53125,-0.234375 0.703125,-0.296875 0.75,-0.890625 0.75,-1.03125 0,-0.4375 -0.375,-0.84375 -1.0625,-0.84375 -1.109375,0 -2.625,0.96875 -2.625,2.71875 0,1.015625 0.59375,1.796875 1.578125,1.796875 1.421875,0 2.25,-1.0625 2.25,-1.171875 0,-0.0625 -0.046875,-0.140625 -0.109375,-0.140625 -0.0625,0 -0.078125,0.03125 -0.140625,0.109375 -0.78125,0.984375 -1.875,0.984375 -1.984375,0.984375 -0.78125,0 -0.875,-0.84375 -0.875,-1.15625 0,-0.125 0.015625,-0.421875 0.15625,-1.03125 z m -0.46875,-0.21875 C 1.78125,-4.03125 2.8125,-4.1875 3.078125,-4.1875 c 0.453125,0 0.734375,0.296875 0.734375,0.625 0,1.046875 -1.59375,1.046875 -2.015625,1.046875 z m 0,0"
               id="id-9e5c228a-5d64-4dbb-b383-a0133f30fd10" />
          </g>
        </g>
      </g>
      <g
         transform="matrix(0.43625106,0,0,0.43625106,158.1228,138.90683)"
         ns1:version="1.8.2"
         ns1:texconverter="pdflatex"
         ns1:pdfconverter="inkscape"
         ns1:text="$i&lt;e$"
         ns1:preamble="/home/sanatan/.config/inkscape/extensions/textext/default_packages.tex"
         ns1:scale="1.0"
         ns1:alignment="middle center"
         ns1:stroke-to-path="0"
         ns1:inkscapeversion="1.2.2"
         ns1:jacobian_sqrt="0.352778"
         id="g3065"
         style="fill:#008000">
        <defs
           id="id-029a09db-604b-4fa8-887c-f491267f3e66">
          <g
             id="id-18f01e07-e05b-469b-885f-48c0be0ee7f0">
            <g
               id="id-abf6739a-3525-4a46-85c3-df6c383b0f41" />
            <g
               id="id-07ef62e1-40d1-474a-acf4-a96ea28e52b1">
              <path
                 d="m 2.828125,-6.234375 c 0,-0.203125 -0.140625,-0.359375 -0.359375,-0.359375 -0.28125,0 -0.546875,0.265625 -0.546875,0.53125 0,0.1875 0.140625,0.359375 0.375,0.359375 0.234375,0 0.53125,-0.234375 0.53125,-0.53125 z m -0.75,3.75 c 0.109375,-0.28125 0.109375,-0.3125 0.21875,-0.578125 0.078125,-0.203125 0.125,-0.34375 0.125,-0.53125 0,-0.4375 -0.3125,-0.8125 -0.8125,-0.8125 -0.9375,0 -1.3125,1.453125 -1.3125,1.53125 0,0.109375 0.09375,0.109375 0.109375,0.109375 0.109375,0 0.109375,-0.03125 0.15625,-0.1875 0.28125,-0.9375 0.671875,-1.234375 1.015625,-1.234375 0.078125,0 0.25,0 0.25,0.3125 0,0.21875 -0.078125,0.421875 -0.109375,0.53125 -0.078125,0.25 -0.53125,1.40625 -0.6875,1.84375 -0.109375,0.25 -0.234375,0.578125 -0.234375,0.796875 0,0.46875 0.34375,0.8125 0.8125,0.8125 0.9375,0 1.3125,-1.4375 1.3125,-1.53125 0,-0.109375 -0.09375,-0.109375 -0.125,-0.109375 -0.09375,0 -0.09375,0.03125 -0.140625,0.1875 -0.1875,0.625 -0.515625,1.234375 -1.015625,1.234375 -0.171875,0 -0.25,-0.09375 -0.25,-0.328125 0,-0.25 0.0625,-0.390625 0.296875,-1 z m 0,0"
                 id="id-1ce67177-7b9a-4b4b-8ed9-8dac0abe7aa5" />
            </g>
            <g
               id="id-b7558bac-057f-4bef-9125-339950964d96">
              <path
                 d="m 6.734375,-4.96875 c 0.109375,-0.0625 0.1875,-0.109375 0.1875,-0.21875 0,-0.109375 -0.09375,-0.203125 -0.203125,-0.203125 -0.03125,0 -0.046875,0 -0.171875,0.078125 l -5.53125,2.59375 c -0.109375,0.0625 -0.1875,0.109375 -0.1875,0.21875 0,0.125 0.078125,0.171875 0.1875,0.234375 l 5.53125,2.59375 C 6.671875,0.40625 6.6875,0.40625 6.71875,0.40625 c 0.109375,0 0.203125,-0.09375 0.203125,-0.203125 0,-0.109375 -0.078125,-0.15625 -0.1875,-0.21875 L 1.5,-2.5 Z m 0,0"
                 id="id-adea9c24-b0a9-4586-911c-411603aa294d" />
            </g>
            <g
               id="id-04d529f4-7a20-490b-810b-6c9d7c75d676">
              <path
                 d="m 1.859375,-2.296875 c 0.296875,0 1.03125,-0.03125 1.53125,-0.234375 0.703125,-0.296875 0.75,-0.890625 0.75,-1.03125 0,-0.4375 -0.375,-0.84375 -1.0625,-0.84375 -1.109375,0 -2.625,0.96875 -2.625,2.71875 0,1.015625 0.59375,1.796875 1.578125,1.796875 1.421875,0 2.25,-1.0625 2.25,-1.171875 0,-0.0625 -0.046875,-0.140625 -0.109375,-0.140625 -0.0625,0 -0.078125,0.03125 -0.140625,0.109375 -0.78125,0.984375 -1.875,0.984375 -1.984375,0.984375 -0.78125,0 -0.875,-0.84375 -0.875,-1.15625 0,-0.125 0.015625,-0.421875 0.15625,-1.03125 z m -0.46875,-0.21875 C 1.78125,-4.03125 2.8125,-4.1875 3.078125,-4.1875 c 0.453125,0 0.734375,0.296875 0.734375,0.625 0,1.046875 -1.59375,1.046875 -2.015625,1.046875 z m 0,0"
                 id="id-242b5ecd-aecb-459c-a39c-8f7af408b614" />
            </g>
          </g>
        </defs>
        <g
           fill="#000000"
           fill-opacity="1"
           id="id-fbd65d19-cfa5-4a75-855d-ec675df91fb9"
           transform="translate(-149.009,-128.171)"
           style="fill:#008000">
          <g
             transform="translate(148.712,134.765)"
             id="g3333"
             style="fill:#008000">
            <path
               d="m 2.828125,-6.234375 c 0,-0.203125 -0.140625,-0.359375 -0.359375,-0.359375 -0.28125,0 -0.546875,0.265625 -0.546875,0.53125 0,0.1875 0.140625,0.359375 0.375,0.359375 0.234375,0 0.53125,-0.234375 0.53125,-0.53125 z m -0.75,3.75 c 0.109375,-0.28125 0.109375,-0.3125 0.21875,-0.578125 0.078125,-0.203125 0.125,-0.34375 0.125,-0.53125 0,-0.4375 -0.3125,-0.8125 -0.8125,-0.8125 -0.9375,0 -1.3125,1.453125 -1.3125,1.53125 0,0.109375 0.09375,0.109375 0.109375,0.109375 0.109375,0 0.109375,-0.03125 0.15625,-0.1875 0.28125,-0.9375 0.671875,-1.234375 1.015625,-1.234375 0.078125,0 0.25,0 0.25,0.3125 0,0.21875 -0.078125,0.421875 -0.109375,0.53125 -0.078125,0.25 -0.53125,1.40625 -0.6875,1.84375 -0.109375,0.25 -0.234375,0.578125 -0.234375,0.796875 0,0.46875 0.34375,0.8125 0.8125,0.8125 0.9375,0 1.3125,-1.4375 1.3125,-1.53125 0,-0.109375 -0.09375,-0.109375 -0.125,-0.109375 -0.09375,0 -0.09375,0.03125 -0.140625,0.1875 -0.1875,0.625 -0.515625,1.234375 -1.015625,1.234375 -0.171875,0 -0.25,-0.09375 -0.25,-0.328125 0,-0.25 0.0625,-0.390625 0.296875,-1 z m 0,0"
               id="id-ab4fe527-e821-4d10-9575-a65adb3d5a74"
               style="fill:#008000" />
          </g>
        </g>
        <g
           fill="#000000"
           fill-opacity="1"
           id="id-57d658d2-eb91-4c47-9a1e-c0cead242152"
           transform="translate(-149.009,-128.171)"
           style="fill:#008000">
          <g
             transform="translate(154.914,134.765)"
             id="g3337"
             style="fill:#008000">
            <path
               d="m 6.734375,-4.96875 c 0.109375,-0.0625 0.1875,-0.109375 0.1875,-0.21875 0,-0.109375 -0.09375,-0.203125 -0.203125,-0.203125 -0.03125,0 -0.046875,0 -0.171875,0.078125 l -5.53125,2.59375 c -0.109375,0.0625 -0.1875,0.109375 -0.1875,0.21875 0,0.125 0.078125,0.171875 0.1875,0.234375 l 5.53125,2.59375 C 6.671875,0.40625 6.6875,0.40625 6.71875,0.40625 c 0.109375,0 0.203125,-0.09375 0.203125,-0.203125 0,-0.109375 -0.078125,-0.15625 -0.1875,-0.21875 L 1.5,-2.5 Z m 0,0"
               id="id-546e8055-eb15-408d-9d22-788110f4fbcc"
               style="fill:#008000" />
          </g>
        </g>
        <g
           fill="#000000"
           fill-opacity="1"
           id="id-a0f2c48e-8f68-45ce-85c8-122bdfd116ef"
           transform="translate(-149.009,-128.171)"
           style="fill:#008000">
          <g
             transform="translate(165.432,134.765)"
             id="g3341"
             style="fill:#008000">
            <path
               d="m 1.859375,-2.296875 c 0.296875,0 1.03125,-0.03125 1.53125,-0.234375 0.703125,-0.296875 0.75,-0.890625 0.75,-1.03125 0,-0.4375 -0.375,-0.84375 -1.0625,-0.84375 -1.109375,0 -2.625,0.96875 -2.625,2.71875 0,1.015625 0.59375,1.796875 1.578125,1.796875 1.421875,0 2.25,-1.0625 2.25,-1.171875 0,-0.0625 -0.046875,-0.140625 -0.109375,-0.140625 -0.0625,0 -0.078125,0.03125 -0.140625,0.109375 -0.78125,0.984375 -1.875,0.984375 -1.984375,0.984375 -0.78125,0 -0.875,-0.84375 -0.875,-1.15625 0,-0.125 0.015625,-0.421875 0.15625,-1.03125 z m -0.46875,-0.21875 C 1.78125,-4.03125 2.8125,-4.1875 3.078125,-4.1875 c 0.453125,0 0.734375,0.296875 0.734375,0.625 0,1.046875 -1.59375,1.046875 -2.015625,1.046875 z m 0,0"
               id="id-d572506f-0e3e-4285-ba2e-b9fb091da3cc"
               style="fill:#008000" />
          </g>
        </g>
      </g>
      <g
         transform="matrix(0.43625106,0,0,0.43625106,58.997189,138.90683)"
         ns1:version="1.8.2"
         ns1:texconverter="pdflatex"
         ns1:pdfconverter="inkscape"
         ns1:text="$i&gt;e$"
         ns1:preamble="/home/sanatan/.config/inkscape/extensions/textext/default_packages.tex"
         ns1:scale="1.0"
         ns1:alignment="middle center"
         ns1:stroke-to-path="0"
         ns1:inkscapeversion="1.2.2"
         ns1:jacobian_sqrt="0.352778"
         id="g3418"
         style="fill:#008000">
        <defs
           id="id-c146830c-321c-4dbe-b5a0-a8a135aab666">
          <g
             id="id-367b2fe4-5bdd-4733-af26-cf73806acb4b">
            <g
               id="id-f6e9b18e-9ec7-49a3-a618-a15f49c3893a" />
            <g
               id="id-1a484fc4-e1ef-4a58-a0a5-d64f230b84dd">
              <path
                 d="m 2.828125,-6.234375 c 0,-0.203125 -0.140625,-0.359375 -0.359375,-0.359375 -0.28125,0 -0.546875,0.265625 -0.546875,0.53125 0,0.1875 0.140625,0.359375 0.375,0.359375 0.234375,0 0.53125,-0.234375 0.53125,-0.53125 z m -0.75,3.75 c 0.109375,-0.28125 0.109375,-0.3125 0.21875,-0.578125 0.078125,-0.203125 0.125,-0.34375 0.125,-0.53125 0,-0.4375 -0.3125,-0.8125 -0.8125,-0.8125 -0.9375,0 -1.3125,1.453125 -1.3125,1.53125 0,0.109375 0.09375,0.109375 0.109375,0.109375 0.109375,0 0.109375,-0.03125 0.15625,-0.1875 0.28125,-0.9375 0.671875,-1.234375 1.015625,-1.234375 0.078125,0 0.25,0 0.25,0.3125 0,0.21875 -0.078125,0.421875 -0.109375,0.53125 -0.078125,0.25 -0.53125,1.40625 -0.6875,1.84375 -0.109375,0.25 -0.234375,0.578125 -0.234375,0.796875 0,0.46875 0.34375,0.8125 0.8125,0.8125 0.9375,0 1.3125,-1.4375 1.3125,-1.53125 0,-0.109375 -0.09375,-0.109375 -0.125,-0.109375 -0.09375,0 -0.09375,0.03125 -0.140625,0.1875 -0.1875,0.625 -0.515625,1.234375 -1.015625,1.234375 -0.171875,0 -0.25,-0.09375 -0.25,-0.328125 0,-0.25 0.0625,-0.390625 0.296875,-1 z m 0,0"
                 id="id-ffc961eb-f22a-4904-a4a1-e66166ae61f1" />
            </g>
            <g
               id="id-b0c3a4ba-ab3e-44c4-afe6-7d0c76983b8e">
              <path
                 d="M 6.734375,-2.265625 C 6.84375,-2.328125 6.921875,-2.375 6.921875,-2.5 c 0,-0.109375 -0.078125,-0.15625 -0.1875,-0.21875 L 1.203125,-5.3125 C 1.078125,-5.390625 1.0625,-5.390625 1.03125,-5.390625 c -0.109375,0 -0.203125,0.09375 -0.203125,0.203125 0,0.09375 0.046875,0.15625 0.1875,0.21875 L 6.25,-2.5 1.015625,-0.015625 c -0.140625,0.0625 -0.1875,0.125 -0.1875,0.21875 0,0.109375 0.09375,0.203125 0.203125,0.203125 0.03125,0 0.046875,0 0.171875,-0.078125 z m 0,0"
                 id="id-6106420d-1709-4558-8087-6747194f8941" />
            </g>
            <g
               id="id-f0c7ef60-9f6f-4b50-b071-19fee31c5dc6">
              <path
                 d="m 1.859375,-2.296875 c 0.296875,0 1.03125,-0.03125 1.53125,-0.234375 0.703125,-0.296875 0.75,-0.890625 0.75,-1.03125 0,-0.4375 -0.375,-0.84375 -1.0625,-0.84375 -1.109375,0 -2.625,0.96875 -2.625,2.71875 0,1.015625 0.59375,1.796875 1.578125,1.796875 1.421875,0 2.25,-1.0625 2.25,-1.171875 0,-0.0625 -0.046875,-0.140625 -0.109375,-0.140625 -0.0625,0 -0.078125,0.03125 -0.140625,0.109375 -0.78125,0.984375 -1.875,0.984375 -1.984375,0.984375 -0.78125,0 -0.875,-0.84375 -0.875,-1.15625 0,-0.125 0.015625,-0.421875 0.15625,-1.03125 z m -0.46875,-0.21875 C 1.78125,-4.03125 2.8125,-4.1875 3.078125,-4.1875 c 0.453125,0 0.734375,0.296875 0.734375,0.625 0,1.046875 -1.59375,1.046875 -2.015625,1.046875 z m 0,0"
                 id="id-4693e3c4-df40-4cac-8c3d-0e475b603d06" />
            </g>
          </g>
        </defs>
        <g
           fill="#000000"
           fill-opacity="1"
           id="id-076d6ab9-e754-4470-8d1d-cccba7a9f48a"
           transform="translate(-149.009,-128.171)"
           style="fill:#008000">
          <g
             transform="translate(148.712,134.765)"
             id="g3723"
             style="fill:#008000">
            <path
               d="m 2.828125,-6.234375 c 0,-0.203125 -0.140625,-0.359375 -0.359375,-0.359375 -0.28125,0 -0.546875,0.265625 -0.546875,0.53125 0,0.1875 0.140625,0.359375 0.375,0.359375 0.234375,0 0.53125,-0.234375 0.53125,-0.53125 z m -0.75,3.75 c 0.109375,-0.28125 0.109375,-0.3125 0.21875,-0.578125 0.078125,-0.203125 0.125,-0.34375 0.125,-0.53125 0,-0.4375 -0.3125,-0.8125 -0.8125,-0.8125 -0.9375,0 -1.3125,1.453125 -1.3125,1.53125 0,0.109375 0.09375,0.109375 0.109375,0.109375 0.109375,0 0.109375,-0.03125 0.15625,-0.1875 0.28125,-0.9375 0.671875,-1.234375 1.015625,-1.234375 0.078125,0 0.25,0 0.25,0.3125 0,0.21875 -0.078125,0.421875 -0.109375,0.53125 -0.078125,0.25 -0.53125,1.40625 -0.6875,1.84375 -0.109375,0.25 -0.234375,0.578125 -0.234375,0.796875 0,0.46875 0.34375,0.8125 0.8125,0.8125 0.9375,0 1.3125,-1.4375 1.3125,-1.53125 0,-0.109375 -0.09375,-0.109375 -0.125,-0.109375 -0.09375,0 -0.09375,0.03125 -0.140625,0.1875 -0.1875,0.625 -0.515625,1.234375 -1.015625,1.234375 -0.171875,0 -0.25,-0.09375 -0.25,-0.328125 0,-0.25 0.0625,-0.390625 0.296875,-1 z m 0,0"
               id="id-c30b3040-d33c-4450-9713-fcbf9b016601"
               style="fill:#008000" />
          </g>
        </g>
        <g
           fill="#000000"
           fill-opacity="1"
           id="id-10f2a5df-2596-47e9-84fb-c37852a6c335"
           transform="translate(-149.009,-128.171)"
           style="fill:#008000">
          <g
             transform="translate(154.914,134.765)"
             id="g3727"
             style="fill:#008000">
            <path
               d="M 6.734375,-2.265625 C 6.84375,-2.328125 6.921875,-2.375 6.921875,-2.5 c 0,-0.109375 -0.078125,-0.15625 -0.1875,-0.21875 L 1.203125,-5.3125 C 1.078125,-5.390625 1.0625,-5.390625 1.03125,-5.390625 c -0.109375,0 -0.203125,0.09375 -0.203125,0.203125 0,0.09375 0.046875,0.15625 0.1875,0.21875 L 6.25,-2.5 1.015625,-0.015625 c -0.140625,0.0625 -0.1875,0.125 -0.1875,0.21875 0,0.109375 0.09375,0.203125 0.203125,0.203125 0.03125,0 0.046875,0 0.171875,-0.078125 z m 0,0"
               id="id-4eea5322-81fd-466e-a1a2-2c928ccf1058"
               style="fill:#008000" />
          </g>
        </g>
        <g
           fill="#000000"
           fill-opacity="1"
           id="id-343a65c3-ce2f-42e2-8b48-de56707ad9e5"
           transform="translate(-149.009,-128.171)"
           style="fill:#008000">
          <g
             transform="translate(165.432,134.765)"
             id="g3731"
             style="fill:#008000">
            <path
               d="m 1.859375,-2.296875 c 0.296875,0 1.03125,-0.03125 1.53125,-0.234375 0.703125,-0.296875 0.75,-0.890625 0.75,-1.03125 0,-0.4375 -0.375,-0.84375 -1.0625,-0.84375 -1.109375,0 -2.625,0.96875 -2.625,2.71875 0,1.015625 0.59375,1.796875 1.578125,1.796875 1.421875,0 2.25,-1.0625 2.25,-1.171875 0,-0.0625 -0.046875,-0.140625 -0.109375,-0.140625 -0.0625,0 -0.078125,0.03125 -0.140625,0.109375 -0.78125,0.984375 -1.875,0.984375 -1.984375,0.984375 -0.78125,0 -0.875,-0.84375 -0.875,-1.15625 0,-0.125 0.015625,-0.421875 0.15625,-1.03125 z m -0.46875,-0.21875 C 1.78125,-4.03125 2.8125,-4.1875 3.078125,-4.1875 c 0.453125,0 0.734375,0.296875 0.734375,0.625 0,1.046875 -1.59375,1.046875 -2.015625,1.046875 z m 0,0"
               id="id-81dfba3c-a615-48d1-8363-23071bb79de9"
               style="fill:#008000" />
          </g>
        </g>
      </g>
      <g
         transform="matrix(0.43625106,0,0,0.43625106,75.259764,138.90683)"
         ns1:version="1.8.2"
         ns1:texconverter="pdflatex"
         ns1:pdfconverter="inkscape"
         ns1:text="$i&lt;e$"
         ns1:preamble="/home/sanatan/.config/inkscape/extensions/textext/default_packages.tex"
         ns1:scale="1.0"
         ns1:alignment="middle center"
         ns1:stroke-to-path="0"
         ns1:inkscapeversion="1.2.2"
         ns1:jacobian_sqrt="0.352778"
         id="g3928"
         style="fill:#800080">
        <defs
           id="defs3908">
          <g
             id="g3906">
            <g
               id="g3892" />
            <g
               id="g3896">
              <path
                 d="m 2.828125,-6.234375 c 0,-0.203125 -0.140625,-0.359375 -0.359375,-0.359375 -0.28125,0 -0.546875,0.265625 -0.546875,0.53125 0,0.1875 0.140625,0.359375 0.375,0.359375 0.234375,0 0.53125,-0.234375 0.53125,-0.53125 z m -0.75,3.75 c 0.109375,-0.28125 0.109375,-0.3125 0.21875,-0.578125 0.078125,-0.203125 0.125,-0.34375 0.125,-0.53125 0,-0.4375 -0.3125,-0.8125 -0.8125,-0.8125 -0.9375,0 -1.3125,1.453125 -1.3125,1.53125 0,0.109375 0.09375,0.109375 0.109375,0.109375 0.109375,0 0.109375,-0.03125 0.15625,-0.1875 0.28125,-0.9375 0.671875,-1.234375 1.015625,-1.234375 0.078125,0 0.25,0 0.25,0.3125 0,0.21875 -0.078125,0.421875 -0.109375,0.53125 -0.078125,0.25 -0.53125,1.40625 -0.6875,1.84375 -0.109375,0.25 -0.234375,0.578125 -0.234375,0.796875 0,0.46875 0.34375,0.8125 0.8125,0.8125 0.9375,0 1.3125,-1.4375 1.3125,-1.53125 0,-0.109375 -0.09375,-0.109375 -0.125,-0.109375 -0.09375,0 -0.09375,0.03125 -0.140625,0.1875 -0.1875,0.625 -0.515625,1.234375 -1.015625,1.234375 -0.171875,0 -0.25,-0.09375 -0.25,-0.328125 0,-0.25 0.0625,-0.390625 0.296875,-1 z m 0,0"
                 id="path3894" />
            </g>
            <g
               id="g3900">
              <path
                 d="m 6.734375,-4.96875 c 0.109375,-0.0625 0.1875,-0.109375 0.1875,-0.21875 0,-0.109375 -0.09375,-0.203125 -0.203125,-0.203125 -0.03125,0 -0.046875,0 -0.171875,0.078125 l -5.53125,2.59375 c -0.109375,0.0625 -0.1875,0.109375 -0.1875,0.21875 0,0.125 0.078125,0.171875 0.1875,0.234375 l 5.53125,2.59375 C 6.671875,0.40625 6.6875,0.40625 6.71875,0.40625 c 0.109375,0 0.203125,-0.09375 0.203125,-0.203125 0,-0.109375 -0.078125,-0.15625 -0.1875,-0.21875 L 1.5,-2.5 Z m 0,0"
                 id="path3898" />
            </g>
            <g
               id="g3904">
              <path
                 d="m 1.859375,-2.296875 c 0.296875,0 1.03125,-0.03125 1.53125,-0.234375 0.703125,-0.296875 0.75,-0.890625 0.75,-1.03125 0,-0.4375 -0.375,-0.84375 -1.0625,-0.84375 -1.109375,0 -2.625,0.96875 -2.625,2.71875 0,1.015625 0.59375,1.796875 1.578125,1.796875 1.421875,0 2.25,-1.0625 2.25,-1.171875 0,-0.0625 -0.046875,-0.140625 -0.109375,-0.140625 -0.0625,0 -0.078125,0.03125 -0.140625,0.109375 -0.78125,0.984375 -1.875,0.984375 -1.984375,0.984375 -0.78125,0 -0.875,-0.84375 -0.875,-1.15625 0,-0.125 0.015625,-0.421875 0.15625,-1.03125 z m -0.46875,-0.21875 C 1.78125,-4.03125 2.8125,-4.1875 3.078125,-4.1875 c 0.453125,0 0.734375,0.296875 0.734375,0.625 0,1.046875 -1.59375,1.046875 -2.015625,1.046875 z m 0,0"
                 id="path3902" />
            </g>
          </g>
        </defs>
        <g
           fill="#000000"
           fill-opacity="1"
           id="g3914"
           transform="translate(-149.009,-128.171)"
           style="fill:#800080">
          <g
             transform="translate(148.712,134.765)"
             id="g3912"
             style="fill:#800080">
            <path
               d="m 2.828125,-6.234375 c 0,-0.203125 -0.140625,-0.359375 -0.359375,-0.359375 -0.28125,0 -0.546875,0.265625 -0.546875,0.53125 0,0.1875 0.140625,0.359375 0.375,0.359375 0.234375,0 0.53125,-0.234375 0.53125,-0.53125 z m -0.75,3.75 c 0.109375,-0.28125 0.109375,-0.3125 0.21875,-0.578125 0.078125,-0.203125 0.125,-0.34375 0.125,-0.53125 0,-0.4375 -0.3125,-0.8125 -0.8125,-0.8125 -0.9375,0 -1.3125,1.453125 -1.3125,1.53125 0,0.109375 0.09375,0.109375 0.109375,0.109375 0.109375,0 0.109375,-0.03125 0.15625,-0.1875 0.28125,-0.9375 0.671875,-1.234375 1.015625,-1.234375 0.078125,0 0.25,0 0.25,0.3125 0,0.21875 -0.078125,0.421875 -0.109375,0.53125 -0.078125,0.25 -0.53125,1.40625 -0.6875,1.84375 -0.109375,0.25 -0.234375,0.578125 -0.234375,0.796875 0,0.46875 0.34375,0.8125 0.8125,0.8125 0.9375,0 1.3125,-1.4375 1.3125,-1.53125 0,-0.109375 -0.09375,-0.109375 -0.125,-0.109375 -0.09375,0 -0.09375,0.03125 -0.140625,0.1875 -0.1875,0.625 -0.515625,1.234375 -1.015625,1.234375 -0.171875,0 -0.25,-0.09375 -0.25,-0.328125 0,-0.25 0.0625,-0.390625 0.296875,-1 z m 0,0"
               id="path3910"
               style="fill:#800080" />
          </g>
        </g>
        <g
           fill="#000000"
           fill-opacity="1"
           id="g3920"
           transform="translate(-149.009,-128.171)"
           style="fill:#800080">
          <g
             transform="translate(154.914,134.765)"
             id="g3918"
             style="fill:#800080">
            <path
               d="m 6.734375,-4.96875 c 0.109375,-0.0625 0.1875,-0.109375 0.1875,-0.21875 0,-0.109375 -0.09375,-0.203125 -0.203125,-0.203125 -0.03125,0 -0.046875,0 -0.171875,0.078125 l -5.53125,2.59375 c -0.109375,0.0625 -0.1875,0.109375 -0.1875,0.21875 0,0.125 0.078125,0.171875 0.1875,0.234375 l 5.53125,2.59375 C 6.671875,0.40625 6.6875,0.40625 6.71875,0.40625 c 0.109375,0 0.203125,-0.09375 0.203125,-0.203125 0,-0.109375 -0.078125,-0.15625 -0.1875,-0.21875 L 1.5,-2.5 Z m 0,0"
               id="path3916"
               style="fill:#800080" />
          </g>
        </g>
        <g
           fill="#000000"
           fill-opacity="1"
           id="g3926"
           transform="translate(-149.009,-128.171)"
           style="fill:#800080">
          <g
             transform="translate(165.432,134.765)"
             id="g3924"
             style="fill:#800080">
            <path
               d="m 1.859375,-2.296875 c 0.296875,0 1.03125,-0.03125 1.53125,-0.234375 0.703125,-0.296875 0.75,-0.890625 0.75,-1.03125 0,-0.4375 -0.375,-0.84375 -1.0625,-0.84375 -1.109375,0 -2.625,0.96875 -2.625,2.71875 0,1.015625 0.59375,1.796875 1.578125,1.796875 1.421875,0 2.25,-1.0625 2.25,-1.171875 0,-0.0625 -0.046875,-0.140625 -0.109375,-0.140625 -0.0625,0 -0.078125,0.03125 -0.140625,0.109375 -0.78125,0.984375 -1.875,0.984375 -1.984375,0.984375 -0.78125,0 -0.875,-0.84375 -0.875,-1.15625 0,-0.125 0.015625,-0.421875 0.15625,-1.03125 z m -0.46875,-0.21875 C 1.78125,-4.03125 2.8125,-4.1875 3.078125,-4.1875 c 0.453125,0 0.734375,0.296875 0.734375,0.625 0,1.046875 -1.59375,1.046875 -2.015625,1.046875 z m 0,0"
               id="path3922"
               style="fill:#800080" />
          </g>
        </g>
      </g>
      <g
         transform="matrix(0.43625106,0,0,0.43625106,175.56884,138.90683)"
         ns1:version="1.8.2"
         ns1:texconverter="pdflatex"
         ns1:pdfconverter="inkscape"
         ns1:text="$i&gt;e$"
         ns1:preamble="/home/sanatan/.config/inkscape/extensions/textext/default_packages.tex"
         ns1:scale="1.0"
         ns1:alignment="middle center"
         ns1:stroke-to-path="0"
         ns1:inkscapeversion="1.2.2"
         ns1:jacobian_sqrt="0.352778"
         id="g3966"
         style="fill:#800080">
        <defs
           id="defs3946">
          <g
             id="g3944">
            <g
               id="g3930" />
            <g
               id="g3934">
              <path
                 d="m 2.828125,-6.234375 c 0,-0.203125 -0.140625,-0.359375 -0.359375,-0.359375 -0.28125,0 -0.546875,0.265625 -0.546875,0.53125 0,0.1875 0.140625,0.359375 0.375,0.359375 0.234375,0 0.53125,-0.234375 0.53125,-0.53125 z m -0.75,3.75 c 0.109375,-0.28125 0.109375,-0.3125 0.21875,-0.578125 0.078125,-0.203125 0.125,-0.34375 0.125,-0.53125 0,-0.4375 -0.3125,-0.8125 -0.8125,-0.8125 -0.9375,0 -1.3125,1.453125 -1.3125,1.53125 0,0.109375 0.09375,0.109375 0.109375,0.109375 0.109375,0 0.109375,-0.03125 0.15625,-0.1875 0.28125,-0.9375 0.671875,-1.234375 1.015625,-1.234375 0.078125,0 0.25,0 0.25,0.3125 0,0.21875 -0.078125,0.421875 -0.109375,0.53125 -0.078125,0.25 -0.53125,1.40625 -0.6875,1.84375 -0.109375,0.25 -0.234375,0.578125 -0.234375,0.796875 0,0.46875 0.34375,0.8125 0.8125,0.8125 0.9375,0 1.3125,-1.4375 1.3125,-1.53125 0,-0.109375 -0.09375,-0.109375 -0.125,-0.109375 -0.09375,0 -0.09375,0.03125 -0.140625,0.1875 -0.1875,0.625 -0.515625,1.234375 -1.015625,1.234375 -0.171875,0 -0.25,-0.09375 -0.25,-0.328125 0,-0.25 0.0625,-0.390625 0.296875,-1 z m 0,0"
                 id="path3932" />
            </g>
            <g
               id="g3938">
              <path
                 d="M 6.734375,-2.265625 C 6.84375,-2.328125 6.921875,-2.375 6.921875,-2.5 c 0,-0.109375 -0.078125,-0.15625 -0.1875,-0.21875 L 1.203125,-5.3125 C 1.078125,-5.390625 1.0625,-5.390625 1.03125,-5.390625 c -0.109375,0 -0.203125,0.09375 -0.203125,0.203125 0,0.09375 0.046875,0.15625 0.1875,0.21875 L 6.25,-2.5 1.015625,-0.015625 c -0.140625,0.0625 -0.1875,0.125 -0.1875,0.21875 0,0.109375 0.09375,0.203125 0.203125,0.203125 0.03125,0 0.046875,0 0.171875,-0.078125 z m 0,0"
                 id="path3936" />
            </g>
            <g
               id="g3942">
              <path
                 d="m 1.859375,-2.296875 c 0.296875,0 1.03125,-0.03125 1.53125,-0.234375 0.703125,-0.296875 0.75,-0.890625 0.75,-1.03125 0,-0.4375 -0.375,-0.84375 -1.0625,-0.84375 -1.109375,0 -2.625,0.96875 -2.625,2.71875 0,1.015625 0.59375,1.796875 1.578125,1.796875 1.421875,0 2.25,-1.0625 2.25,-1.171875 0,-0.0625 -0.046875,-0.140625 -0.109375,-0.140625 -0.0625,0 -0.078125,0.03125 -0.140625,0.109375 -0.78125,0.984375 -1.875,0.984375 -1.984375,0.984375 -0.78125,0 -0.875,-0.84375 -0.875,-1.15625 0,-0.125 0.015625,-0.421875 0.15625,-1.03125 z m -0.46875,-0.21875 C 1.78125,-4.03125 2.8125,-4.1875 3.078125,-4.1875 c 0.453125,0 0.734375,0.296875 0.734375,0.625 0,1.046875 -1.59375,1.046875 -2.015625,1.046875 z m 0,0"
                 id="path3940" />
            </g>
          </g>
        </defs>
        <g
           fill="#000000"
           fill-opacity="1"
           id="g3952"
           transform="translate(-149.009,-128.171)"
           style="fill:#800080">
          <g
             transform="translate(148.712,134.765)"
             id="g3950"
             style="fill:#800080">
            <path
               d="m 2.828125,-6.234375 c 0,-0.203125 -0.140625,-0.359375 -0.359375,-0.359375 -0.28125,0 -0.546875,0.265625 -0.546875,0.53125 0,0.1875 0.140625,0.359375 0.375,0.359375 0.234375,0 0.53125,-0.234375 0.53125,-0.53125 z m -0.75,3.75 c 0.109375,-0.28125 0.109375,-0.3125 0.21875,-0.578125 0.078125,-0.203125 0.125,-0.34375 0.125,-0.53125 0,-0.4375 -0.3125,-0.8125 -0.8125,-0.8125 -0.9375,0 -1.3125,1.453125 -1.3125,1.53125 0,0.109375 0.09375,0.109375 0.109375,0.109375 0.109375,0 0.109375,-0.03125 0.15625,-0.1875 0.28125,-0.9375 0.671875,-1.234375 1.015625,-1.234375 0.078125,0 0.25,0 0.25,0.3125 0,0.21875 -0.078125,0.421875 -0.109375,0.53125 -0.078125,0.25 -0.53125,1.40625 -0.6875,1.84375 -0.109375,0.25 -0.234375,0.578125 -0.234375,0.796875 0,0.46875 0.34375,0.8125 0.8125,0.8125 0.9375,0 1.3125,-1.4375 1.3125,-1.53125 0,-0.109375 -0.09375,-0.109375 -0.125,-0.109375 -0.09375,0 -0.09375,0.03125 -0.140625,0.1875 -0.1875,0.625 -0.515625,1.234375 -1.015625,1.234375 -0.171875,0 -0.25,-0.09375 -0.25,-0.328125 0,-0.25 0.0625,-0.390625 0.296875,-1 z m 0,0"
               id="path3948"
               style="fill:#800080" />
          </g>
        </g>
        <g
           fill="#000000"
           fill-opacity="1"
           id="g3958"
           transform="translate(-149.009,-128.171)"
           style="fill:#800080">
          <g
             transform="translate(154.914,134.765)"
             id="g3956"
             style="fill:#800080">
            <path
               d="M 6.734375,-2.265625 C 6.84375,-2.328125 6.921875,-2.375 6.921875,-2.5 c 0,-0.109375 -0.078125,-0.15625 -0.1875,-0.21875 L 1.203125,-5.3125 C 1.078125,-5.390625 1.0625,-5.390625 1.03125,-5.390625 c -0.109375,0 -0.203125,0.09375 -0.203125,0.203125 0,0.09375 0.046875,0.15625 0.1875,0.21875 L 6.25,-2.5 1.015625,-0.015625 c -0.140625,0.0625 -0.1875,0.125 -0.1875,0.21875 0,0.109375 0.09375,0.203125 0.203125,0.203125 0.03125,0 0.046875,0 0.171875,-0.078125 z m 0,0"
               id="path3954"
               style="fill:#800080" />
          </g>
        </g>
        <g
           fill="#000000"
           fill-opacity="1"
           id="g3964"
           transform="translate(-149.009,-128.171)"
           style="fill:#800080">
          <g
             transform="translate(165.432,134.765)"
             id="g3962"
             style="fill:#800080">
            <path
               d="m 1.859375,-2.296875 c 0.296875,0 1.03125,-0.03125 1.53125,-0.234375 0.703125,-0.296875 0.75,-0.890625 0.75,-1.03125 0,-0.4375 -0.375,-0.84375 -1.0625,-0.84375 -1.109375,0 -2.625,0.96875 -2.625,2.71875 0,1.015625 0.59375,1.796875 1.578125,1.796875 1.421875,0 2.25,-1.0625 2.25,-1.171875 0,-0.0625 -0.046875,-0.140625 -0.109375,-0.140625 -0.0625,0 -0.078125,0.03125 -0.140625,0.109375 -0.78125,0.984375 -1.875,0.984375 -1.984375,0.984375 -0.78125,0 -0.875,-0.84375 -0.875,-1.15625 0,-0.125 0.015625,-0.421875 0.15625,-1.03125 z m -0.46875,-0.21875 C 1.78125,-4.03125 2.8125,-4.1875 3.078125,-4.1875 c 0.453125,0 0.734375,0.296875 0.734375,0.625 0,1.046875 -1.59375,1.046875 -2.015625,1.046875 z m 0,0"
               id="path3960"
               style="fill:#800080" />
          </g>
        </g>
      </g>
      <g
         aria-label="/"
         transform="matrix(0.26458333,0,0,0.26458333,-1.5875,8.4666669)"
         id="text3970"
         style="font-size:14.6667px;line-height:1.25;white-space:pre;shape-inside:url(#rect3972);display:inline">
        <path
           d="m 275.37109,503.97737 2.94337,-10.77086 h 1.13151 l -2.91472,10.77086 z"
           id="path7209" />
      </g>
      <g
         aria-label="/"
         transform="matrix(0.26458333,0,0,0.26458333,97.366696,8.4666669)"
         id="text3984"
         style="font-size:14.6667px;line-height:1.25;white-space:pre;shape-inside:url(#rect3986);display:inline">
        <path
           d="m 275.37109,503.97737 2.94337,-10.77086 h 1.13151 l -2.91472,10.77086 z"
           id="path7212" />
      </g>
      <g
         aria-label="T0"
         transform="matrix(0.26458333,0,0,0.26458333,44.702649,190.86879)"
         id="text6402"
         style="font-size:14.6667px;line-height:1.25;white-space:pre;shape-inside:url(#rect6404);display:inline">
        <path
           d="m 228.98048,-67.197306 -1.7474,8.973328 h -1.36068 l 1.7474,-8.973328 h -3.46615 l 0.21484,-1.11719 h 8.29299 l -0.21484,1.11719 z"
           style="font-style:italic;-inkscape-font-specification:'sans-serif Italic'"
           id="path6961" />
        <path
           d="m 235.20237,-61.947229 q 0.85186,0 1.33132,0.57256 0.48412,0.57256 0.48412,1.596651 0,1.191669 -0.36309,2.308859 -0.36309,1.112535 -1.02875,1.694405 -0.66566,0.577215 -1.61527,0.577215 -0.84254,0 -1.32201,-0.60049 -0.47946,-0.600489 -0.47946,-1.657165 0,-0.837892 0.20482,-1.703715 0.20948,-0.865822 0.57722,-1.498896 0.37239,-0.633074 0.91702,-0.958922 0.54929,-0.330502 1.29408,-0.330502 z m -1.12184,6.065411 q 0.7029,0 1.14512,-0.493425 0.44687,-0.493426 0.71221,-1.531482 0.26533,-1.04271 0.26533,-1.913188 0,-0.721518 -0.2793,-1.084605 -0.27464,-0.363087 -0.77738,-0.363087 -0.7029,0 -1.14977,0.493426 -0.44222,0.493426 -0.70756,1.536136 -0.26533,1.038056 -0.26533,1.908533 0,0.721519 0.27464,1.084605 0.2793,0.363087 0.78204,0.363087 z"
           style="font-style:italic;font-size:65%;-inkscape-font-specification:'sans-serif Italic';baseline-shift:sub"
           id="path6963" />
      </g>
    </g>
  </g>
</svg>
