<?xml version="1.0" encoding="UTF-8" standalone="no"?>
<!-- Created with Inkscape (http://www.inkscape.org/) -->

<svg
   sodipodi:docname="img02-01-01.svg"
   id="svg5"
   version="1.1"
   viewBox="0 0 63.5 57.161077"
   height="57.161076mm"
   width="63.5mm"
   inkscape:version="1.2.2 (b0a8486541, 2022-12-01)"
   inkscape:export-filename="img02-01-01.png"
   inkscape:export-xdpi="150"
   inkscape:export-ydpi="150"
   xmlns:inkscape="http://www.inkscape.org/namespaces/inkscape"
   xmlns:sodipodi="http://sodipodi.sourceforge.net/DTD/sodipodi-0.dtd"
   xmlns="http://www.w3.org/2000/svg"
   xmlns:svg="http://www.w3.org/2000/svg"
   xmlns:ns1="http://www.iki.fi/pav/software/textext/">
  <sodipodi:namedview
     id="namedview7"
     pagecolor="#ffffff"
     bordercolor="#666666"
     borderopacity="1.0"
     inkscape:showpageshadow="2"
     inkscape:pageopacity="0.0"
     inkscape:pagecheckerboard="0"
     inkscape:deskcolor="#d1d1d1"
     inkscape:document-units="mm"
     showgrid="false"
     inkscape:zoom="1.1893044"
     inkscape:cx="64.743728"
     inkscape:cy="10.510345"
     inkscape:window-width="1864"
     inkscape:window-height="1051"
     inkscape:window-x="0"
     inkscape:window-y="0"
     inkscape:window-maximized="1"
     inkscape:current-layer="layer1" />
  <defs
     id="defs2">
    <marker
       style="overflow:visible"
       id="EmptyTriangleIn"
       refX="0"
       refY="0"
       orient="auto-start-reverse"
       inkscape:stockid="EmptyTriangleIn"
       markerWidth="5.8241119"
       markerHeight="6.7330775"
       viewBox="0 0 5.8241121 6.7330776"
       inkscape:isstock="true"
       inkscape:collect="always"
       preserveAspectRatio="xMidYMid">
      <path
         transform="scale(0.5)"
         style="fill:context-fill;fill-rule:evenodd;stroke:context-stroke;stroke-width:2"
         d="M 5.77,0 -2.88,5 V -5 Z"
         id="path153" />
    </marker>
    <marker
       style="overflow:visible"
       id="TriangleStart"
       refX="0"
       refY="0"
       orient="auto-start-reverse"
       inkscape:stockid="TriangleStart"
       markerWidth="5.3244081"
       markerHeight="6.155385"
       viewBox="0 0 5.3244081 6.1553851"
       inkscape:isstock="true"
       inkscape:collect="always"
       preserveAspectRatio="xMidYMid">
      <path
         transform="scale(0.5)"
         style="fill:context-stroke;fill-rule:evenodd;stroke:context-stroke;stroke-width:1pt"
         d="M 5.77,0 -2.88,5 V -5 Z"
         id="path135" />
    </marker>
    <clipPath
       id="clipPath8375">
      <rect
         style="fill:none;stroke:#000000;stroke-width:0.378;stroke-linejoin:round;stroke-dasharray:none"
         width="92.183266"
         height="78.654663"
         x="44.675846"
         y="29.574152"
         id="rect1034" />
    </clipPath>
    <clipPath
       id="clipPath1144">
      <rect
         style="fill:none;stroke:#000000;stroke-width:0.378;stroke-linejoin:round;stroke-dasharray:none"
         width="62.923725"
         height="62.923725"
         x="40.271183"
         y="35.551907"
         id="rect1295" />
    </clipPath>
  </defs>
  <g
     inkscape:label="Layer 1"
     inkscape:groupmode="layer"
     id="layer1"
     transform="translate(-27.070132,-24.788394)">
    <g
       id="g1252"
       transform="matrix(0.998723,0,0,0.998723,0.03456936,0.03165555)">
      <g
         id="g1176">
        <g
           id="g1126">
          <g
             id="g1054">
            <path
               style="fill:none;stroke:#008000;stroke-width:0.660496;stroke-linejoin:round;stroke-dasharray:none"
               d="m 40.2712,16.5437 c 0.021,-0.0146 0.042,0.2601 0.063,0.2455 0.021,-0.0146 0.042,0.259 0.063,0.2444 0.021,-0.0146 0.0419,0.2578 0.0629,0.2433 0.021,-0.0146 0.042,0.2567 0.063,0.2422 0.021,-0.0146 0.042,0.2556 0.063,0.2411 0.021,-0.0145 0.042,0.2546 0.063,0.24 0.021,-0.0145 0.042,0.2535 0.063,0.239 0.021,-0.0145 0.042,0.2524 0.063,0.2379 0.021,-0.0145 0.042,0.2513 0.063,0.2369 0.021,-0.0145 0.042,0.2502 0.063,0.2358 0.0209,-0.0145 0.0419,0.2492 0.0629,0.2348 0.021,-0.0145 0.042,0.2481 0.063,0.2337 0.021,-0.0144 0.042,0.2471 0.063,0.2327 0.021,-0.0144 0.042,0.246 0.063,0.2316 0.021,-0.0143 0.042,0.245 0.063,0.2307 0.021,-0.0144 0.042,0.244 0.063,0.2296 0.021,-0.0143 0.042,0.243 0.063,0.2286 0.021,-0.0143 0.0419,0.242 0.0629,0.2277 0.021,-0.0143 0.042,0.2409 0.063,0.2266 0.021,-0.0143 0.042,0.2399 0.063,0.2256 0.021,-0.0142 0.042,0.2389 0.063,0.2247 0.021,-0.0143 0.042,0.2379 0.063,0.2237 0.021,-0.0143 0.042,0.2369 0.063,0.2227 0.021,-0.0143 0.042,0.2359 0.063,0.2217 0.021,-0.0142 0.042,0.2349 0.063,0.2208 0.0209,-0.0142 0.0419,0.2339 0.0629,0.2198 0.021,-0.0142 0.042,0.233 0.063,0.2188 0.021,-0.0141 0.042,0.2321 0.063,0.218 0.021,-0.0142 0.042,0.231 0.063,0.2169 0.021,-0.0141 0.042,0.2301 0.063,0.2161 0.021,-0.0141 0.042,0.2291 0.063,0.2151 0.021,-0.0141 0.042,0.2282 0.063,0.2142 0.021,-0.0141 0.0419,0.2273 0.0629,0.2132 0.021,-0.014 0.042,0.2264 0.063,0.2124 0.021,-0.014 0.042,0.2254 0.063,0.2115 0.021,-0.014 0.042,0.2245 0.063,0.2105 0.021,-0.014 0.042,0.2236 0.063,0.2097 0.021,-0.014 0.042,0.2226 0.063,0.2087 0.021,-0.0139 0.042,0.2218 0.063,0.2079 0.021,-0.0139 0.042,0.2209 0.063,0.207 0.0209,-0.0139 0.0419,0.2199 0.0629,0.2061 0.021,-0.0139 0.042,0.2191 0.063,0.2052 0.021,-0.0138 0.042,0.2182 0.063,0.2044 0.021,-0.0139 0.042,0.2173 0.063,0.2035 0.021,-0.0138 0.042,0.2164 0.063,0.2026 0.021,-0.0138 0.042,0.2156 0.063,0.2018 0.021,-0.0138 0.042,0.2147 0.063,0.201 0.021,-0.0138 0.0419,0.2138 0.0629,0.2001 0.021,-0.0138 0.042,0.2129 0.063,0.1992 0.021,-0.0137 0.042,0.2122 0.063,0.1985 0.021,-0.0137 0.042,0.2112 0.063,0.1976 0.021,-0.0137 0.042,0.2104 0.063,0.1967 0.021,-0.0136 0.042,0.2096 0.063,0.196 0.021,-0.0137 0.042,0.2087 0.063,0.1951 0.021,-0.0136 0.042,0.2079 0.063,0.1943 0.0209,-0.0136 0.0419,0.2071 0.0629,0.1936 0.021,-0.0136 0.042,0.2062 0.063,0.1927 0.021,-0.0136 0.042,0.2054 0.063,0.1919 0.021,-0.0135 0.042,0.2046 0.063,0.1911 0.021,-0.0135 0.042,0.2039 0.063,0.1904 0.021,-0.0135 0.042,0.203 0.063,0.1895 0.021,-0.0135 0.042,0.2022 0.063,0.1888 0.021,-0.0135 0.042,0.2014 0.0629,0.188 0.021,-0.0135 0.042,0.2006 0.063,0.1872 0.021,-0.0134 0.042,0.1999 0.063,0.1865 0.021,-0.0135 0.042,0.199 0.063,0.1856 0.021,-0.0133 0.042,0.1983 0.063,0.185 0.021,-0.0134 0.042,0.1975 0.063,0.1841 0.021,-0.0133 0.042,0.1968 0.063,0.1835 0.021,-0.0134 0.042,0.196 0.063,0.1826 0.0209,-0.0133 0.0419,0.1953 0.0629,0.182 0.021,-0.0133 0.042,0.1944 0.063,0.1812 0.021,-0.0133 0.042,0.1937 0.063,0.1804 0.021,-0.0132 0.042,0.193 0.063,0.1798 0.021,-0.0133 0.042,0.1922 0.063,0.179 0.021,-0.0132 0.042,0.1914 0.063,0.1782 0.021,-0.0131 0.042,0.1908 0.063,0.1776 0.021,-0.0132 0.042,0.19 0.0629,0.1768 0.021,-0.0131 0.042,0.1893 0.063,0.1762 0.021,-0.0132 0.042,0.1885 0.063,0.1754 0.021,-0.0131 0.042,0.1878 0.063,0.1747 0.021,-0.0131 0.042,0.1871 0.063,0.174 0.021,-0.013 0.042,0.1864 0.063,0.1734 0.021,-0.0131 0.042,0.1856 0.063,0.1726 0.021,-0.013 0.042,0.185 0.063,0.1719 0.0209,-0.013 0.0419,0.1843 0.0629,0.1713 0.021,-0.013 0.042,0.1835 0.063,0.1706 0.021,-0.013 0.042,0.1828 0.063,0.1699 0.021,-0.013 0.042,0.1821 0.063,0.1692 0.021,-0.013 0.042,0.1815 0.063,0.1685 0.021,-0.0129 0.042,0.1808 0.063,0.1679 0.021,-0.0129 0.042,0.1801 0.063,0.1672 0.021,-0.0128 0.042,0.1795 0.0629,0.1666 0.021,-0.0129 0.042,0.1787 0.063,0.1659 0.021,-0.0128 0.042,0.1781 0.063,0.1652 0.021,-0.0128 0.042,0.1774 0.063,0.1646 0.021,-0.0128 0.042,0.1768 0.063,0.164 0.021,-0.0128 0.042,0.1761 0.063,0.1633 0.021,-0.0128 0.042,0.1754 0.063,0.1627 0.021,-0.0128 0.042,0.1747 0.063,0.162 0.0209,-0.0127 0.0419,0.1741 0.0629,0.1614 0.021,-0.0127 0.042,0.1734 0.063,0.1608 0.021,-0.0127 0.042,0.1728 0.063,0.1601 0.021,-0.0127 0.042,0.1722 0.063,0.1595 0.021,-0.0126 0.042,0.1715 0.063,0.1589 0.021,-0.0126 0.042,0.1709 0.063,0.1583 0.021,-0.0126 0.042,0.1702 0.063,0.1577 0.021,-0.0126 0.042,0.1696 0.0629,0.157 0.021,-0.0125 0.042,0.169 0.063,0.1565 0.021,-0.0126 0.042,0.1683 0.063,0.1558 0.021,-0.0125 0.042,0.1677 0.063,0.1552 0.021,-0.0125 0.042,0.1672 0.063,0.1547 0.021,-0.0125 0.042,0.1665 0.063,0.154 0.021,-0.0124 0.042,0.1659 0.063,0.1535 0.021,-0.0124 0.042,0.1653 0.063,0.1529 0.021,-0.0125 0.0419,0.1646 0.0629,0.1522 0.021,-0.0124 0.042,0.1641 0.063,0.1517 0.021,-0.0123 0.042,0.1635 0.063,0.1512 0.021,-0.0124 0.042,0.1628 0.063,0.1505 0.021,-0.0123 0.042,0.1623 0.063,0.15 0.021,-0.0124 0.042,0.1616 0.063,0.1494 0.021,-0.0123 0.042,0.1611 0.063,0.1488 0.021,-0.0123 0.042,0.1605 0.0629,0.1482 0.021,-0.0122 0.042,0.16 0.063,0.1477 0.021,-0.0122 0.042,0.1594 0.063,0.1472 0.021,-0.0122 0.042,0.1587 0.063,0.1466 0.021,-0.0122 0.042,0.1582 0.063,0.146 0.021,-0.0122 0.042,0.1576 0.063,0.1455 0.021,-0.0122 0.042,0.157 0.063,0.1449 0.021,-0.0121 0.042,0.1565 0.063,0.1444 0.021,-0.0121 0.0419,0.1559 0.0629,0.1438 0.021,-0.0121 0.042,0.1554 0.063,0.1433 0.021,-0.0121 0.042,0.1548 0.063,0.1428 0.021,-0.0121 0.042,0.1542 0.063,0.1422 0.021,-0.012 0.042,0.1537 0.063,0.1417 0.021,-0.012 0.042,0.1531 0.063,0.1411 0.021,-0.0119 0.042,0.1526 0.063,0.1407 0.021,-0.012 0.042,0.152 0.0629,0.1401 0.021,-0.0119 0.042,0.1515 0.063,0.1396 0.021,-0.0119 0.042,0.151 0.063,0.1391 0.021,-0.0119 0.042,0.1504 0.063,0.1385 0.021,-0.0119 0.042,0.1499 0.063,0.1381 0.021,-0.0119 0.042,0.1493 0.063,0.1375 0.021,-0.0119 0.042,0.1488 0.063,0.137 0.021,-0.0118 0.042,0.1483 0.063,0.1365 0.021,-0.0118 0.0419,0.1478 0.0629,0.136 0.021,-0.0118 0.042,0.1473 0.063,0.1355 0.021,-0.0117 0.042,0.1468 0.063,0.135 0.021,-0.0117 0.042,0.1463 0.063,0.1345 0.021,-0.0117 0.042,0.1458 0.063,0.1341 0.021,-0.0117 0.042,0.1452 0.063,0.1335 0.021,-0.0117 0.042,0.1447 0.063,0.133 0.021,-0.0116 0.042,0.1442 0.0629,0.1326 0.021,-0.0117 0.042,0.1436 0.063,0.132 0.021,-0.0116 0.042,0.1432 0.063,0.1316 0.021,-0.0116 0.042,0.1427 0.063,0.1311 0.021,-0.0115 0.042,0.1422 0.063,0.1306 0.021,-0.0115 0.042,0.1417 0.063,0.1302 0.021,-0.0115 0.042,0.1412 0.063,0.1297 0.021,-0.0115 0.042,0.1407 0.063,0.1292 0.021,-0.0115 0.0419,0.1402 0.0629,0.1287 0.021,-0.0114 0.042,0.1397 0.063,0.1283 0.021,-0.0115 0.042,0.1392 0.063,0.1278 0.021,-0.0114 0.042,0.1387 0.063,0.1273 0.021,-0.0114 0.042,0.1383 0.063,0.1269 0.021,-0.0114 0.042,0.1378 0.063,0.1265 0.021,-0.0114 0.042,0.1373 0.063,0.1259 0.021,-0.0113 0.042,0.1369 0.063,0.1255 0.0209,-0.0113 0.0419,0.1364 0.0629,0.1251 0.021,-0.0113 0.042,0.1359 0.063,0.1246 0.021,-0.0112 0.042,0.1355 0.063,0.1242 0.021,-0.0112 0.042,0.135 0.063,0.1237 0.021,-0.0112 0.042,0.1345 0.063,0.1233 0.021,-0.0112 0.042,0.1341 0.063,0.1229 0.021,-0.0112 0.042,0.1336 0.063,0.1224 0.021,-0.0112 0.0419,0.1331 0.0629,0.122 0.021,-0.0112 0.042,0.1326 0.063,0.1215 0.021,-0.0111 0.042,0.1322 0.063,0.1211 0.021,-0.0111 0.042,0.1318 0.063,0.1207 0.021,-0.0111 0.042,0.1313 0.063,0.1202 0.021,-0.011 0.042,0.1309 0.063,0.1199 0.021,-0.0111 0.042,0.1304 0.063,0.1194 0.021,-0.011 0.042,0.1299 0.063,0.119 0.0209,-0.011 0.0419,0.1295 0.0629,0.1185 0.021,-0.011 0.042,0.1291 0.063,0.1182 0.021,-0.011 0.042,0.1286 0.063,0.1177 0.021,-0.0109 0.042,0.1282 0.063,0.1173 0.021,-0.0109 0.042,0.1278 0.063,0.1169 0.021,-0.0109 0.042,0.1274 0.063,0.1165 0.021,-0.0109 0.042,0.1269 0.063,0.1161 0.021,-0.0109 0.0419,0.1265 0.0629,0.1157 0.021,-0.0109 0.042,0.126 0.063,0.1152 0.021,-0.0108 0.042,0.1257 0.063,0.1149 0.021,-0.0108 0.042,0.1252 0.063,0.1145 0.021,-0.0108 0.042,0.1248 0.063,0.114 0.021,-0.0107 0.042,0.1244 0.063,0.1137 0.021,-0.0107 0.042,0.124 0.063,0.1133 0.021,-0.0107 0.042,0.1236 0.063,0.1129 0.0209,-0.0107 0.0419,0.1231 0.0629,0.1125 0.021,-0.0107 0.042,0.1227 0.063,0.1121 0.021,-0.0106 0.042,0.1223 0.063,0.1117 0.021,-0.0106 0.042,0.1219 0.063,0.1113 0.021,-0.0105 0.042,0.1215 0.063,0.111 0.021,-0.0106 0.042,0.1211 0.063,0.1106 0.021,-0.0106 0.042,0.1207 0.063,0.1101 0.021,-0.0105 0.042,0.1203 0.0629,0.1098 0.021,-0.0104 0.042,0.1199 0.063,0.1095 0.021,-0.0105 0.042,0.1195 0.063,0.109 0.021,-0.0104 0.042,0.1191 0.063,0.1087 0.021,-0.0104 0.042,0.1187 0.063,0.1083 0.021,-0.0104 0.042,0.1183 0.063,0.108 0.021,-0.0104 0.042,0.1179 0.063,0.1075 0.021,-0.0103 0.042,0.1176 0.063,0.1072 0.0209,-0.0103 0.0419,0.1172 0.0629,0.1069 0.021,-0.0103 0.042,0.1167 0.063,0.1064 0.021,-0.0103 0.042,0.1164 0.063,0.1062 0.021,-0.0103 0.042,0.116 0.063,0.1057 0.021,-0.0102 0.042,0.1156 0.063,0.1054 0.021,-0.0102 0.042,0.1152 0.063,0.105 0.021,-0.0102 0.042,0.1149 0.063,0.1047 0.021,-0.0102 0.042,0.1145 0.0629,0.1043 0.021,-0.0101 0.042,0.1142 0.063,0.104 0.021,-0.0101 0.042,0.1138 0.063,0.1036 0.021,-0.0101 0.042,0.1134 0.063,0.1033 0.021,-0.0101 0.042,0.113 0.063,0.1029 0.021,-0.01 0.042,0.1127 0.063,0.1026 0.021,-0.01 0.042,0.1123 0.063,0.1023 0.021,-0.0101 0.042,0.1119 0.063,0.1019 0.0209,-0.0101 0.0419,0.1115 0.0629,0.1015 0.021,-0.01 0.042,0.1112 0.063,0.1012 0.021,-0.0099 0.042,0.1108 0.063,0.1009 0.021,-0.0099 0.042,0.1105 0.063,0.1005 0.021,-0.0099 0.042,0.1101 0.063,0.1002 0.021,-0.0099 0.042,0.1098 0.063,0.0999 0.021,-0.0099 0.042,0.1094 0.063,0.0995 0.021,-0.0098 0.042,0.1091 0.0629,0.0992 0.021,-0.0098 0.042,0.1087 0.063,0.0989 0.021,-0.0098 0.042,0.1084 0.063,0.0986 0.021,-0.0098 0.042,0.108 0.063,0.0982 0.021,-0.0098 0.042,0.1076 0.063,0.0979 0.021,-0.0098 0.042,0.1073 0.063,0.0976 0.021,-0.0098 0.042,0.1069 0.063,0.0972 0.021,-0.0097 0.042,0.1066 0.063,0.0969 0.0209,-0.0096 0.0419,0.1063 0.0629,0.0967 0.021,-0.0097 0.042,0.1059 0.063,0.0962 0.021,-0.0096 0.042,0.1056 0.063,0.096 0.021,-0.0096 0.042,0.1053 0.063,0.0957 0.021,-0.0096 0.042,0.1049 0.063,0.0953 0.021,-0.0095 0.042,0.1046 0.063,0.0951 0.021,-0.0096 0.042,0.1042 0.063,0.0947 0.021,-0.0095 0.042,0.1039 0.0629,0.0944 0.021,-0.0095 0.042,0.1036 0.063,0.0941 0.021,-0.0095 0.042,0.1033 0.063,0.0938 0.021,-0.0094 0.042,0.1029 0.063,0.0935 0.021,-0.0094 0.042,0.1026 0.063,0.0932 0.021,-0.0094 0.042,0.1023 0.063,0.0929 0.021,-0.0094 0.042,0.1019 0.063,0.0926 0.021,-0.0094 0.042,0.1016 0.063,0.0922 0.021,-0.0093 0.0419,0.1013 0.0629,0.092 0.021,-0.0093 0.042,0.101 0.063,0.0917 0.021,-0.0093 0.042,0.1007 0.063,0.0914 0.021,-0.0093 0.042,0.1003 0.063,0.0911 0.021,-0.0093 0.042,0.1 0.063,0.0908 0.021,-0.0092 0.042,0.0997 0.063,0.0905 0.021,-0.0092 0.042,0.0994 0.063,0.0902 0.021,-0.0092 0.042,0.0991 0.0629,0.0899 0.021,-0.0091 0.042,0.0988 0.063,0.0897 0.021,-0.0092 0.042,0.0984 0.063,0.0893 0.021,-0.0091 0.042,0.0982 0.063,0.0891 0.021,-0.0091 0.042,0.0978 0.063,0.0888 0.021,-0.0091 0.042,0.0975 0.063,0.0885 0.021,-0.0091 0.042,0.0972 0.063,0.0882 0.021,-0.0091 0.042,0.0969 0.063,0.0879 0.021,-0.009 0.0419,0.0966 0.0629,0.0876 0.021,-0.0089 0.042,0.0964 0.063,0.0874 0.021,-0.0089 0.042,0.096 0.063,0.0871 0.021,-0.0089 0.042,0.0957 0.063,0.0868 0.021,-0.0089 0.042,0.0954 0.063,0.0866 0.021,-0.0089 0.042,0.0951 0.063,0.0862 0.021,-0.0088 0.042,0.0948 0.063,0.086 0.021,-0.0088 0.042,0.0945 0.0629,0.0857 0.021,-0.0088 0.042,0.0943 0.063,0.0855 0.021,-0.0088 0.042,0.0939 0.063,0.0851 0.021,-0.0087 0.042,0.0937 0.063,0.085 0.021,-0.0088 0.042,0.0933 0.063,0.0846 0.021,-0.0087 0.042,0.0931 0.063,0.0844 0.021,-0.0087 0.042,0.0928 0.063,0.0841 0.021,-0.0087 0.042,0.0925 0.063,0.0838 0.021,-0.0086 0.0419,0.0922 0.0629,0.0836 0.021,-0.0086 0.042,0.0919 0.063,0.0833 0.021,-0.0086 0.042,0.0917 0.063,0.0831 0.021,-0.0086 0.042,0.0913 0.063,0.0828 0.021,-0.0086 0.042,0.091 0.063,0.0825 0.021,-0.0085 0.042,0.0908 0.063,0.0823 0.021,-0.0085 0.042,0.0905 0.063,0.082 0.021,-0.0085 0.042,0.0903 0.0629,0.0818 0.021,-0.0085 0.042,0.0899 0.063,0.0815 0.021,-0.0085 0.042,0.0897 0.063,0.0813 0.021,-0.0085 0.042,0.0894 0.063,0.081 0.021,-0.0084 0.042,0.0891 0.063,0.0807 0.021,-0.0084 0.042,0.0889 0.063,0.0805 0.021,-0.0083 0.042,0.0886 0.063,0.0803 0.021,-0.0084 0.042,0.0883 0.063,0.08 0.021,-0.0083 0.0419,0.088 0.0629,0.0797 0.021,-0.0082 0.042,0.0878 0.063,0.0796 0.021,-0.0083 0.042,0.0875 0.063,0.0792 0.021,-0.0082 0.042,0.0873 0.063,0.0791 0.021,-0.0083 0.042,0.0869 0.063,0.0787 0.021,-0.0082 0.042,0.0867 0.063,0.0786 0.021,-0.0082 0.042,0.0864 0.063,0.0783 0.021,-0.0082 0.042,0.0862 0.063,0.078 0.0209,-0.0081 0.0419,0.0859 0.0629,0.0779 0.021,-0.0081 0.042,0.0856 0.063,0.0775 0.021,-0.008 0.042,0.0854 0.063,0.0774 0.021,-0.0081 0.042,0.0851 0.063,0.0771 0.021,-0.0081 0.042,0.0849 0.063,0.0768 0.021,-0.008 0.042,0.0847 0.063,0.0767 0.021,-0.008 0.042,0.0843 0.063,0.0764 0.021,-0.008 0.0419,0.0841 0.0629,0.0762 0.021,-0.008 0.042,0.0838 0.063,0.0759 0.021,-0.0079 0.042,0.0836 0.063,0.0757 0.021,-0.0079 0.042,0.0833 0.063,0.0755 0.021,-0.0079 0.042,0.0831 0.063,0.0752 0.021,-0.0078 0.042,0.0829 0.063,0.0751 0.021,-0.0079 0.042,0.0825 0.063,0.0747 0.021,-0.0077 0.042,0.0824 0.063,0.0746 0.0209,-0.0078 0.0419,0.0821 0.0629,0.0744 0.021,-0.0078 0.042,0.0818 0.063,0.0741 0.021,-0.0077 0.042,0.0816 0.063,0.0739 0.021,-0.0077 0.042,0.0813 0.063,0.0736 0.021,-0.0076 0.042,0.0812 0.063,0.0735 0.021,-0.0077 0.042,0.0809 0.063,0.0732 0.021,-0.0076 0.042,0.0806 0.063,0.073 0.021,-0.0076 0.0419,0.0804 0.0629,0.0728 0.021,-0.0076 0.042,0.0802 0.063,0.0726 0.021,-0.0076 0.042,0.0799 0.063,0.0724 0.021,-0.0076 0.042,0.0796 0.063,0.0721 0.021,-0.0075 0.042,0.0794 0.063,0.0719 0.021,-0.0075 0.042,0.0792 0.063,0.0717 0.021,-0.0074 0.042,0.079 0.063,0.0715 0.021,-0.0074 0.042,0.0787 0.063,0.0713 0.0209,-0.0074 0.0419,0.0785 0.0629,0.0711 0.021,-0.0074 0.042,0.0782 0.063,0.0709 0.021,-0.0074 0.042,0.0779 0.063,0.0706 0.021,-0.0073 0.042,0.0778 0.063,0.0704 0.021,-0.0073 0.042,0.0776 0.063,0.0703 0.021,-0.0073 0.042,0.0773 0.063,0.07 0.021,-0.0073 0.042,0.0771 0.063,0.0698 0.021,-0.0072 0.0419,0.0769 0.0629,0.0696 0.021,-0.0072 0.042,0.0766 0.063,0.0694 0.021,-0.0072 0.042,0.0764 0.063,0.0692 0.021,-0.0072 0.042,0.0762 0.063,0.069 0.021,-0.0071 0.042,0.076 0.063,0.0688 0.021,-0.0071 0.042,0.0757 0.063,0.0686 0.021,-0.0071 0.042,0.0755 0.063,0.0684 0.021,-0.0071 0.042,0.0753 0.063,0.0682 0.0209,-0.0071 0.0419,0.075 0.0629,0.068 0.021,-0.0071 0.042,0.0748 0.063,0.0678 0.021,-0.007 0.042,0.0746 0.063,0.0676 0.021,-0.007 0.042,0.0743 0.063,0.0674 0.021,-0.007 0.042,0.0741 0.063,0.0672 0.021,-0.007 0.042,0.0739 0.063,0.067 0.021,-0.007 0.042,0.0737 0.063,0.0668 0.021,-0.0069 0.042,0.0735 0.0629,0.0666 0.021,-0.0069 0.042,0.0732 0.063,0.0664 0.021,-0.0069 0.042,0.073 0.063,0.0662 0.021,-0.0068 0.042,0.0729 0.063,0.0661 0.021,-0.0068 0.042,0.0726 0.063,0.0658 0.021,-0.0068 0.042,0.0724 0.063,0.0656 0.021,-0.0067 0.042,0.0722 0.063,0.0655 0.021,-0.0067 0.042,0.072 0.063,0.0653 0.0209,-0.0067 0.0419,0.0717 0.0629,0.0651 0.021,-0.0067 0.042,0.0715 0.063,0.0649 0.021,-0.0067 0.042,0.0713 0.063,0.0647 0.021,-0.0067 0.042,0.0711 0.063,0.0645 0.021,-0.0066 0.042,0.0709 0.063,0.0643 0.021,-0.0066 0.042,0.0707 0.063,0.0642 0.021,-0.0066 0.042,0.0705 0.063,0.0639 0.021,-0.0065 0.042,0.0703 0.0629,0.0638 0.021,-0.0065 0.042,0.0701 0.063,0.0636 0.021,-0.0065 0.042,0.0699 0.063,0.0634 0.021,-0.0064 0.042,0.0697 0.063,0.0633 0.021,-0.0065 0.042,0.0695 0.063,0.063 0.021,-0.0064 0.042,0.0693 0.063,0.0629 0.021,-0.0064 0.042,0.0691 0.063,0.0627 0.021,-0.0064 0.042,0.0689 0.063,0.0625 0.0209,-0.0063 0.0419,0.0687 0.0629,0.0624 0.021,-0.0064 0.042,0.0684 0.063,0.0621 0.021,-0.0063 0.042,0.0683 0.063,0.062 0.021,-0.0063 0.042,0.0681 0.063,0.0618 0.021,-0.0062 0.042,0.0679 0.063,0.0617 0.021,-0.0063 0.042,0.0676 0.063,0.0614 0.021,-0.0062 0.042,0.0675 0.063,0.0613 0.021,-0.0062 0.042,0.0673 0.0629,0.0611 0.021,-0.0061 0.042,0.0671 0.063,0.061 0.021,-0.0062 0.042,0.0668 0.063,0.0607 0.021,-0.0061 0.042,0.0667 0.063,0.0606 0.021,-0.0061 0.042,0.0665 0.063,0.0604 0.021,-0.006 0.042,0.0663 0.063,0.0603 0.021,-0.006 0.042,0.0661 0.063,0.0601 0.021,-0.006 0.042,0.0659 0.063,0.0599 0.0209,-0.006 0.0419,0.0657 0.0629,0.0597 0.021,-0.0059 0.042,0.0656 0.063,0.0596 0.021,-0.0059 0.042,0.0654 0.063,0.0594 0.021,-0.0059 0.042,0.0652 0.063,0.0593 0.021,-0.0059 0.042,0.0649 0.063,0.0591 0.021,-0.0059 0.042,0.0647 0.063,0.0589 0.021,-0.0058 0.042,0.0646 0.063,0.0587 0.021,-0.0058 0.042,0.0644 0.0629,0.0586 0.021,-0.0058 0.042,0.0642 0.063,0.0585 0.021,-0.0058 0.042,0.064 0.063,0.0582 0.021,-0.0057 0.042,0.0638 0.063,0.0581 0.021,-0.0057 0.042,0.0637 0.063,0.058 0.021,-0.0057 0.042,0.0634 0.063,0.0577 0.021,-0.0056 0.042,0.0633 0.063,0.0577 0.021,-0.0057 0.042,0.063 0.063,0.0574 0.021,-0.0056 0.0419,0.0629 0.0629,0.0573 0.021,-0.0056 0.042,0.0627 0.063,0.0572 0.021,-0.0056 0.042,0.0625 0.063,0.0569 0.021,-0.0055 0.042,0.0624 0.063,0.0569 0.021,-0.0056 0.042,0.0621 0.063,0.0566 0.021,-0.0055 0.042,0.062 0.063,0.0565 0.021,-0.0054 0.042,0.0619 0.063,0.0564 0.021,-0.0055 0.042,0.0616 0.0629,0.0562 0.021,-0.0054 0.042,0.0615 0.063,0.056 0.021,-0.0054 0.042,0.0613 0.063,0.0559 0.021,-0.0053 0.042,0.0611 0.063,0.0558 0.021,-0.0054 0.042,0.0609 0.063,0.0556 0.021,-0.0054 0.042,0.0607 0.063,0.0554 0.021,-0.0053 0.042,0.0606 0.063,0.0553 0.021,-0.0053 0.042,0.0604 0.063,0.0551 0.021,-0.0052 0.0419,0.0602 0.0629,0.055 0.021,-0.0052 0.042,0.06 0.063,0.0548 0.021,-0.0052 0.042,0.0599 0.063,0.0547 0.021,-0.0052 0.042,0.0597 0.063,0.0545 0.021,-0.0051 0.042,0.0596 0.063,0.0544 0.021,-0.0051 0.042,0.0594 0.063,0.0543 0.021,-0.0051 0.042,0.0591 0.063,0.0541 0.021,-0.0051 0.042,0.059 0.0629,0.0539 0.021,-0.0051 0.042,0.0588 0.063,0.0538 0.021,-0.005 0.042,0.0587 0.063,0.0537 0.021,-0.0051 0.042,0.0584 0.063,0.0535 0.021,-0.005 0.042,0.0583 0.063,0.0533 0.021,-0.0049 0.042,0.0582 0.063,0.0532 0.021,-0.0049 0.042,0.058 0.063,0.0531 0.021,-0.0049 0.042,0.0578 0.063,0.0529 0.021,-0.0049 0.0419,0.0577 0.0629,0.0528 0.021,-0.0048 0.042,0.0575 0.063,0.0527 0.021,-0.0049 0.042,0.0573 0.063,0.0525 0.021,-0.0048 0.042,0.0571 0.063,0.0523 0.021,-0.0048 0.042,0.057 0.063,0.0523 0.021,-0.0048 0.042,0.0568 0.063,0.052 0.021,-0.0047 0.042,0.0567 0.063,0.052 0.021,-0.0047 0.042,0.0565 0.063,0.0518 0.0209,-0.0047 0.0419,0.0563 0.0629,0.0517 0.021,-0.0047 0.042,0.0561 0.063,0.0515 0.021,-0.0047 0.042,0.056 0.063,0.0514 0.021,-0.0046 0.042,0.0558 0.063,0.0512 0.021,-0.0046 0.042,0.0557 0.063,0.0511 0.021,-0.0045 0.042,0.0556 0.063,0.051 0.021,-0.0045 0.042,0.0554 0.063,0.0509 0.021,-0.0046 0.0419,0.0552 0.0629,0.0507 0.021,-0.0045 0.042,0.055 0.063,0.0505 0.021,-0.0044 0.042,0.0549 0.063,0.0505 0.021,-0.0045 0.042,0.0547 0.063,0.0503 0.021,-0.0044 0.042,0.0546 0.063,0.0502 0.021,-0.0044 0.042,0.0544 0.063,0.05 0.021,-0.0044 0.042,0.0543 0.063,0.0499 0.021,-0.0043 0.042,0.0541 0.063,0.0498 0.0209,-0.0043 0.0419,0.0539 0.0629,0.0496 0.021,-0.0043 0.042,0.0538 0.063,0.0495 0.021,-0.0042 0.042,0.0537 0.063,0.0494 0.021,-0.0042 0.042,0.0535 0.063,0.0493 0.021,-0.0042 0.042,0.0533 0.063,0.0491 0.021,-0.0042 0.042,0.0532 0.063,0.049 0.021,-0.0042 0.042,0.053 0.063,0.0489 0.021,-0.0042 0.0419,0.0528 0.0629,0.0487 0.021,-0.0041 0.042,0.0527 0.063,0.0486 0.021,-0.0041 0.042,0.0526 0.063,0.0485 0.021,-0.0041 0.042,0.0524 0.063,0.0483 0.021,-0.004 0.042,0.0523 0.063,0.0483 0.021,-0.004 0.042,0.0521 0.063,0.0481 0.021,-0.004 0.042,0.0519 0.063,0.048 0.021,-0.004 0.042,0.0518 0.063,0.0478 0.0209,-0.0039 0.0419,0.0517 0.0629,0.0477 0.021,-0.0039 0.042,0.0515 0.063,0.0476 0.021,-0.0039 0.042,0.0514 0.063,0.0475 0.021,-0.0039 0.042,0.0512 0.063,0.0474 0.021,-0.0039 0.042,0.051 0.063,0.0472 0.021,-0.0038 0.042,0.0509 0.063,0.0471 0.021,-0.0038 0.042,0.0508 0.063,0.047 0.021,-0.0038 0.0419,0.0506 0.0629,0.0469 0.021,-0.0038 0.042,0.0505 0.063,0.0467 0.021,-0.0037 0.042,0.0504 0.063,0.0467 0.021,-0.0038 0.042,0.0501 0.063,0.0465 0.021,-0.0037 0.042,0.05 0.063,0.0463 0.021,-0.0036 0.042,0.0499 0.063,0.0463 0.021,-0.0036 0.042,0.0498 0.063,0.0462 0.021,-0.0037 0.042,0.0496 0.063,0.046 0.0209,-0.0036 0.0419,0.0494 0.0629,0.0459 0.021,-0.0036 0.042,0.0493 0.063,0.0458 0.021,-0.0036 0.042,0.0492 0.063,0.0457 0.021,-0.0036 0.042,0.049 0.063,0.0455 0.021,-0.0035 0.042,0.0489 0.063,0.0454 0.021,-0.0034 0.042,0.0488 0.063,0.0454 0.021,-0.0035 0.042,0.0486 0.063,0.0452 0.021,-0.0034 0.042,0.0484 0.0629,0.0451 0.021,-0.0034 0.042,0.0483 0.063,0.0449 0.021,-0.0033 0.042,0.0482 0.063,0.0449 0.021,-0.0033 0.042,0.0481 0.063,0.0448 0.021,-0.0034 0.042,0.0479 0.063,0.0446 0.021,-0.0033 0.042,0.0478 0.063,0.0445 0.021,-0.0033 0.042,0.0476 0.063,0.0444 0.021,-0.0032 0.042,0.0475 0.063,0.0443 0.0209,-0.0032 0.0419,0.0474 0.0629,0.0442 0.021,-0.0032 0.042,0.0472 0.063,0.0441 0.021,-0.0032 0.042,0.047 0.063,0.0439 0.021,-0.0031 0.042,0.047 0.063,0.0439 0.021,-0.0032 0.042,0.0468 0.063,0.0437 0.021,-0.0031 0.042,0.0467 0.063,0.0436 0.021,-0.003 0.042,0.0466 0.063,0.0435 0.021,-0.003 0.042,0.0464 0.0629,0.0434 0.021,-0.003 0.042,0.0463 0.063,0.0433 0.021,-0.003 0.042,0.0462 0.063,0.0432 0.021,-0.0029 0.042,0.046 0.063,0.0431 0.021,-0.0029 0.042,0.0459 0.063,0.043 0.021,-0.0029 0.042,0.0457 0.063,0.0428 0.021,-0.0029 0.042,0.0456 0.063,0.0428 0.021,-0.0029 0.042,0.0455 0.063,0.0426 0.0209,-0.0028 0.0419,0.0454 0.0629,0.0426 0.021,-0.0029 0.042,0.0452 0.063,0.0424 0.021,-0.0028 0.042,0.0451 0.063,0.0423 0.021,-0.0027 0.042,0.045 0.063,0.0422 0.021,-0.0027 0.042,0.0449 0.063,0.0421 0.021,-0.0027 0.042,0.0447 0.063,0.0421 0.021,-0.0027 0.042,0.0445 0.063,0.0419 0.021,-0.0027 0.042,0.0444 0.0629,0.0418 0.021,-0.0027 0.042,0.0443 0.063,0.0417 0.021,-0.0027 0.042,0.0441 0.063,0.0416 0.021,-0.0026 0.042,0.044 0.063,0.0414 0.021,-0.0025 0.042,0.044 0.063,0.0414 0.021,-0.0025 0.042,0.0438 0.063,0.0413 0.021,-0.0025 0.042,0.0437 0.063,0.0412 0.021,-0.0025 0.042,0.0435 0.063,0.0411 0.0209,-0.0025 0.0419,0.0434 0.0629,0.0409 0.021,-0.0024 0.042,0.0433 0.063,0.0409 0.021,-0.0024 0.042,0.0432 0.063,0.0408 0.021,-0.0024 0.042,0.043 0.063,0.0407 0.021,-0.0024 0.042,0.0429 0.063,0.0405 0.021,-0.0023 0.042,0.0428 0.063,0.0405 0.021,-0.0023 0.042,0.0427 0.063,0.0404 0.021,-0.0023 0.042,0.0425 0.0629,0.0403 0.021,-0.0023 0.042,0.0424 0.063,0.0401 0.021,-0.0022 0.042,0.0423 0.063,0.0401 0.021,-0.0022 0.042,0.0422 0.063,0.04 0.021,-0.0022 0.042,0.042 0.063,0.0399 0.021,-0.0022 0.042,0.0419 0.063,0.0398 0.021,-0.0022 0.042,0.0417 0.063,0.0396 0.021,-0.0021 0.042,0.0417 0.063,0.0396 0.021,-0.0021 0.0419,0.0416 0.0629,0.0395 0.021,-0.002 0.042,0.0414 0.063,0.0394 0.021,-0.002 0.042,0.0413 0.063,0.0393 0.021,-0.002 0.042,0.0412 0.063,0.0392 0.021,-0.002 0.042,0.0411 0.063,0.0391 0.021,-0.0019 0.042,0.041 0.063,0.039 0.021,-0.0019 0.042,0.0408 0.063,0.0389 0.021,-0.0019 0.042,0.0407 0.0629,0.0389 0.021,-0.0019 0.042,0.0405 0.063,0.0387 0.021,-0.0019 0.042,0.0405 0.063,0.0386 0.021,-0.0018 0.042,0.0404 0.063,0.0386 0.021,-0.0018 0.042,0.0402 0.063,0.0384 0.021,-0.0018 0.042,0.0401 0.063,0.0384 0.021,-0.0018 0.042,0.0399 0.063,0.0382 0.021,-0.0017 0.042,0.0399 0.063,0.0382 0.021,-0.0017 0.0419,0.0397 0.0629,0.0381 0.021,-0.0017 0.042,0.0396 0.063,0.0379 0.021,-0.0016 0.042,0.0396 0.063,0.0379 0.021,-0.0016 0.042,0.0394 0.063,0.0378 0.021,-0.0016 0.042,0.0393 0.063,0.0377 0.021,-0.0015 0.042,0.0392 0.063,0.0377 0.021,-0.0016 0.042,0.039 0.063,0.0375 0.021,-0.0015 0.042,0.0389 0.0629,0.0374 0.021,-0.0015 0.042,0.0389 0.063,0.0374 0.021,-0.0015 0.042,0.0387 0.063,0.0372 0.021,-0.0014 0.042,0.0386 0.063,0.0372 0.021,-0.0014 0.042,0.0385 0.063,0.0371 0.021,-0.0014 0.042,0.0384 0.063,0.037 0.021,-0.0014 0.042,0.0382 0.063,0.0369 0.021,-0.0014 0.042,0.0381 0.063,0.0368 0.021,-0.0013 0.0419,0.038 0.0629,0.0367 0.021,-0.0013 0.042,0.0379 0.063,0.0367 0.021,-0.0013 0.042,0.0378 0.063,0.0365 0.021,-0.0012 0.042,0.0377 0.063,0.0365 0.021,-0.0013 0.042,0.0376 0.063,0.0364 0.021,-0.0012 0.042,0.0374 0.063,0.0362 0.021,-0.0011 0.042,0.0374 0.063,0.0362 0.021,-0.0011 0.042,0.0373 0.0629,0.0362 0.021,-0.0012 0.042,0.0371 0.063,0.036 0.021,-0.0011 0.042,0.037 0.063,0.036 0.021,-0.0011 0.042,0.0369 0.063,0.0358 0.021,-0.001 0.042,0.0368 0.063,0.0358 0.021,-0.001 0.042,0.0367 0.063,0.0357 0.021,-0.001 0.042,0.0366 0.063,0.0356 0.021,-0.001 0.042,0.0365 0.063,0.0355 0.021,-9e-4 0.0419,0.0364 0.0629,0.0355 0.021,-0.001 0.042,0.0362 0.063,0.0353 0.021,-9e-4 0.042,0.0362 0.063,0.0353 0.021,-9e-4 0.042,0.036 0.063,0.0352 0.021,-9e-4 0.042,0.0359 0.063,0.0351 0.021,-8e-4 0.042,0.0358 0.063,0.035 0.021,-8e-4 0.042,0.0357 0.063,0.035 0.021,-8e-4 0.042,0.0356 0.063,0.0348 0.0209,-7e-4 0.0419,0.0355 0.0629,0.0348 0.021,-7e-4 0.042,0.0354 0.063,0.0347 0.021,-7e-4 0.042,0.0353 0.063,0.0346 0.021,-7e-4 0.042,0.0352 0.063,0.0346 0.021,-7e-4 0.042,0.035 0.063,0.0344 0.021,-6e-4 0.042,0.035 0.063,0.0344 0.021,-6e-4 0.042,0.0349 0.063,0.0343 0.021,-6e-4 0.0419,0.0347 0.0629,0.0342 0.021,-6e-4 0.042,0.0347 0.063,0.0341 0.021,-5e-4 0.042,0.0346 0.063,0.0341 0.021,-5e-4 0.042,0.0344 0.063,0.034 0.021,-5e-4 0.042,0.0343 0.063,0.0339 0.021,-5e-4 0.042,0.0342 0.063,0.0338 0.021,-4e-4 0.042,0.0341 0.063,0.0337 0.021,-4e-4 0.042,0.0341 0.063,0.0337 0.0209,-4e-4 0.0419,0.0339 0.0629,0.0336 0.021,-4e-4 0.042,0.0338 0.063,0.0335 0.021,-3e-4 0.042,0.0337 0.063,0.0334 0.021,-3e-4 0.042,0.0336 0.063,0.0334 0.021,-3e-4 0.042,0.0335 0.063,0.0332 0.021,-2e-4 0.042,0.0334 0.063,0.0332 0.021,-2e-4 0.042,0.0333 0.063,0.0331 0.021,-1e-4 0.0419,0.0333 0.0629,0.0331 0.021,-2e-4 0.042,0.0331 0.063,0.033 0.021,-2e-4 0.042,0.033 0.063,0.0329 0.021,-2e-4 0.042,0.0329 0.063,0.0328 0.021,-1e-4 0.042,0.0328 0.063,0.0327 0.021,-1e-4 0.042,0.0327 0.063,0.0327 0.021,-1e-4 0.042,0.0326 0.063,0.0326 0.021,-1e-4 0.042,0.0325 0.063,0.0325 0.0209,0 0.0419,0.0324 0.0629,0.0324 0.021,1e-4 0.042,0.0323 0.063,0.0324 0.021,1e-4 0.042,0.0322 0.063,0.0323 0.021,1e-4 0.042,0.0321 0.063,0.0322 0.021,1e-4 0.042,0.032 0.063,0.0322 0.021,1e-4 0.042,0.0319 0.063,0.032 0.021,2e-4 0.042,0.0318 0.063,0.032 0.021,2e-4 0.042,0.0317 0.0629,0.032 0.021,2e-4 0.042,0.0316 0.063,0.0318 0.021,2e-4 0.042,0.0315 0.063,0.0318 0.021,3e-4 0.042,0.0314 0.063,0.0317 0.021,3e-4 0.042,0.0313 0.063,0.0316 0.021,3e-4 0.042,0.0313 0.063,0.0316 0.021,3e-4 0.042,0.0311 0.063,0.0315 0.021,4e-4 0.042,0.031 0.063,0.0314 0.0209,4e-4 0.0419,0.031 0.0629,0.0314 0.021,4e-4 0.042,0.0308 0.063,0.0313 0.021,4e-4 0.042,0.0307 0.063,0.0312 0.021,4e-4 0.042,0.0306 0.063,0.0311 0.021,5e-4 0.042,0.0306 0.063,0.0311 0.021,5e-4 0.042,0.0304 0.063,0.031 0.021,5e-4 0.042,0.0303 0.063,0.0309 0.021,6e-4 0.042,0.0303 0.0629,0.0309 0.021,5e-4 0.042,0.0301 0.063,0.0307 0.021,7e-4 0.042,0.0301 0.063,0.0308 0.021,6e-4 0.042,0.03 0.063,0.0306 0.021,7e-4 0.042,0.0299 0.063,0.0306 0.021,7e-4 0.042,0.0298 0.063,0.0305 0.021,7e-4 0.042,0.0297 0.063,0.0305 0.021,7e-4 0.042,0.0296 0.063,0.0303 0.0209,8e-4 0.0419,0.0296 0.0629,0.0303 0.021,8e-4 0.042,0.0295 0.063,0.0303 0.021,8e-4 0.042,0.0293 0.063,0.0302 0.021,8e-4 0.042,0.0292 0.063,0.0301 0.021,8e-4 0.042,0.0291 0.063,0.03 0.021,9e-4 0.042,0.0291 0.063,0.03 0.021,9e-4 0.042,0.0289 0.063,0.0299 0.021,9e-4 0.042,0.0289 0.0629,0.0298 0.021,0.001 0.042,0.0288 0.063,0.0298 0.021,0.001 0.042,0.0287 0.063,0.0297 0.021,0.001 0.042,0.0286 0.063,0.0296 0.021,0.0011 0.042,0.0286 0.063,0.0296 0.021,0.0011 0.042,0.0284 0.063,0.0295 0.021,0.0011 0.042,0.0284 0.063,0.0295 0.021,0.0011 0.042,0.0282 0.063,0.0293 0.0209,0.0012 0.0419,0.0282 0.0629,0.0294 0.021,0.0011 0.042,0.028 0.063,0.0292 0.021,0.0012 0.042,0.028 0.063,0.0292 0.021,0.0012 0.042,0.0279 0.063,0.0291 0.021,0.0013 0.042,0.0278 0.063,0.0291 0.021,0.0012 0.042,0.0277 0.063,0.029 0.021,0.0013 0.042,0.0276 0.063,0.0289 0.021,0.0013 0.042,0.0275 0.0629,0.0288 0.021,0.0014 0.042,0.0275 0.063,0.0288 0.021,0.0014 0.042,0.0274 0.063,0.0288 0.021,0.0014 0.042,0.0272 0.063,0.0287 0.021,0.0014 0.042,0.0271 0.063,0.0286 0.021,0.0014 0.042,0.027 0.063,0.0285 0.021,0.0015 0.042,0.027 0.063,0.0285 0.021,0.0015 0.042,0.0269 0.063,0.0284 0.021,0.0015 0.0419,0.0268 0.0629,0.0284 0.021,0.0015 0.042,0.0267 0.063,0.0283 0.021,0.0015 0.042,0.0266 0.063,0.0282 0.021,0.0016 0.042,0.0266 0.063,0.0282 0.021,0.0016 0.042,0.0264 0.063,0.0281 0.021,0.0016 0.042,0.0264 0.063,0.028 0.021,0.0017 0.042,0.0263 0.063,0.028 0.021,0.0017 0.042,0.0262 0.0629,0.028 0.021,0.0017 0.042,0.0261 0.063,0.0278 0.021,0.0018 0.042,0.0261 0.063,0.0278 0.021,0.0018 0.042,0.026 0.063,0.0278 0.021,0.0018 0.042,0.0258 0.063,0.0277 0.021,0.0018 0.042,0.0258 0.063,0.0276 0.021,0.0018 0.042,0.0257 0.063,0.0276 0.021,0.0018 0.042,0.0256 0.063,0.0275 0.021,0.0019 0.0419,0.0255 0.0629,0.0274 0.021,0.0019 0.042,0.0255 0.063,0.0274 0.021,0.002 0.042,0.0254 0.063,0.0273 0.021,0.002 0.042,0.0253 0.063,0.0273 0.021,0.002 0.042,0.0252 0.063,0.0272 0.021,0.002 0.042,0.0251 0.063,0.0272 0.021,0.002 0.042,0.025 0.063,0.0271 0.021,0.002 0.042,0.0249 0.0629,0.027 0.021,0.0021 0.042,0.0248 0.063,0.027 0.021,0.0021 0.042,0.0247 0.063,0.0269 0.021,0.0021 0.042,0.0247 0.063,0.0268 0.021,0.0022 0.042,0.0247 0.063,0.0268 0.021,0.0022 0.042,0.0246 0.063,0.0268 0.021,0.0022 0.042,0.0244 0.063,0.0267 0.021,0.0022 0.042,0.0243 0.063,0.0266 0.021,0.0023 0.0419,0.0243 0.0629,0.0266 0.021,0.0023 0.042,0.0242 0.063,0.0265 0.021,0.0023 0.042,0.0241 0.063,0.0265 0.021,0.0023 0.042,0.024 0.063,0.0264 0.021,0.0023 0.042,0.0239 0.063,0.0263 0.021,0.0024 0.042,0.0239 0.063,0.0263 0.021,0.0024 0.042,0.0238 0.063,0.0262 0.021,0.0025 0.042,0.0237 0.0629,0.0262 0.021,0.0025 0.042,0.0236 0.063,0.0261 0.021,0.0025 0.042,0.0236 0.063,0.0261 0.021,0.0025 0.042,0.0235 0.063,0.026 0.021,0.0026 0.042,0.0234 0.063,0.026 0.021,0.0025 0.042,0.0233 0.063,0.0259 0.021,0.0026 0.042,0.0232 0.063,0.0258 0.021,0.0026 0.042,0.0232 0.063,0.0258 0.021,0.0027 0.0419,0.0231 0.0629,0.0257 0.021,0.0027 0.042,0.023 0.063,0.0257 0.021,0.0027 0.042,0.0229 0.063,0.0257 0.021,0.0027 0.042,0.0228 0.063,0.0255 0.021,0.0028 0.042,0.0228 0.063,0.0255 0.021,0.0028 0.042,0.0227 0.063,0.0255 0.021,0.0028 0.042,0.0226 0.063,0.0254 0.021,0.0028 0.042,0.0225 0.063,0.0254 0.0209,0.0028 0.0419,0.0224 0.0629,0.0253 0.021,0.0029 0.042,0.0223 0.063,0.0252 0.021,0.0029 0.042,0.0223 0.063,0.0252 0.021,0.003 0.042,0.0222 0.063,0.0252 0.021,0.0029 0.042,0.0221 0.063,0.0251 0.021,0.0029 0.042,0.022 0.063,0.025 0.021,0.003 0.042,0.022 0.063,0.025 0.021,0.003 0.0419,0.0219 0.0629,0.0249 0.021,0.0031 0.042,0.0218 0.063,0.0249 0.021,0.0031 0.042,0.0217 0.063,0.0248 0.021,0.0031 0.042,0.0217 0.063,0.0248 0.021,0.0031 0.042,0.0216 0.063,0.0247 0.021,0.0032 0.042,0.0215 0.063,0.0247 0.021,0.0032 0.042,0.0214 0.063,0.0246 0.021,0.0032 0.042,0.0214 0.063,0.0246 0.0209,0.0032 0.0419,0.0213 0.0629,0.0245 0.021,0.0033 0.042,0.0212 0.063,0.0245 0.021,0.0033 0.042,0.0211 0.063,0.0244 0.021,0.0033 0.042,0.0211 0.063,0.0244 0.021,0.0033 0.042,0.0209 0.063,0.0243 0.021,0.0033 0.042,0.0209 0.063,0.0243 0.021,0.0033 0.042,0.0208 0.063,0.0242 0.021,0.0034 0.0419,0.0207 0.0629,0.0241 0.021,0.0035 0.042,0.0207 0.063,0.0242 0.021,0.0034 0.042,0.0205 0.063,0.024 0.021,0.0035 0.042,0.0205 0.063,0.024 0.021,0.0035 0.042,0.0205 0.063,0.024 0.021,0.0035 0.042,0.0204 0.063,0.0239 0.021,0.0036 0.042,0.0203 0.063,0.0239 0.021,0.0036 0.042,0.0202 0.063,0.0238 0.0209,0.0036 0.0419,0.0201 0.0629,0.0238 0.021,0.0036 0.042,0.02 0.063,0.0237 0.021,0.0036 0.042,0.02 0.063,0.0237 0.021,0.0036 0.042,0.0199 0.063,0.0236 0.021,0.0037 0.042,0.0198 0.063,0.0235 0.021,0.0038 0.042,0.0198 0.063,0.0236 0.021,0.0037 0.042,0.0197 0.063,0.0234 0.021,0.0038 0.0419,0.0197 0.0629,0.0235 0.021,0.0038 0.042,0.0195 0.063,0.0233 0.021,0.0039 0.042,0.0195 0.063,0.0234 0.021,0.0038 0.042,0.0194 0.063,0.0233 0.021,0.0038 0.042,0.0193 0.063,0.0232 0.021,0.0039 0.042,0.0193 0.063,0.0232 0.021,0.0039 0.042,0.0192 0.063,0.0231 0.021,0.004 0.042,0.0191 0.063,0.0231 0.0209,0.004 0.0419,0.0191 0.0629,0.0231 0.021,0.004 0.042,0.0189 0.063,0.023 0.021,0.004 0.042,0.0189 0.063,0.0229 0.021,0.0041 0.042,0.0188 0.063,0.0229 0.021,0.0041 0.042,0.0188 0.063,0.0229 0.021,0.0041 0.042,0.0187 0.063,0.0228 0.021,0.0041 0.042,0.0186 0.063,0.0228 0.021,0.0041 0.042,0.0185 0.0629,0.0227 0.021,0.0041 0.042,0.0185 0.063,0.0226 0.021,0.0042 0.042,0.0185 0.063,0.0227 0.021,0.0042 0.042,0.0183 0.063,0.0225 0.021,0.0043 0.042,0.0183 0.063,0.0226 0.021,0.0042 0.042,0.0182 0.063,0.0225 0.021,0.0043 0.042,0.0181 0.063,0.0224 0.021,0.0043 0.042,0.0181 0.063,0.0224 0.0209,0.0044 0.0419,0.018 0.0629,0.0224 0.021,0.0043 0.042,0.0179 0.063,0.0223 0.021,0.0044 0.042,0.0178 0.063,0.0222 0.021,0.0044 0.042,0.0178 0.063,0.0223 0.021,0.0044 0.042,0.0177 0.063,0.0221 0.021,0.0045 0.042,0.0177 0.063,0.0222 0.021,0.0044 0.042,0.0175 0.063,0.022 0.021,0.0045 0.042,0.0175 0.0629,0.0221 0.021,0.0045 0.042,0.0174 0.063,0.022 0.021,0.0045 0.042,0.0173 0.063,0.0219 0.021,0.0046 0.042,0.0173 0.063,0.0219 0.021,0.0046 0.042,0.0173 0.063,0.0219 0.021,0.0046 0.042,0.0171 0.063,0.0218 0.021,0.0047 0.042,0.0171 0.063,0.0218 0.021,0.0047 0.042,0.017 0.063,0.0217 0.0209,0.0047 0.0419,0.017 0.0629,0.0217 0.021,0.0047 0.042,0.0169 0.063,0.0216 0.021,0.0048 0.042,0.0169 0.063,0.0216 0.021,0.0048 0.042,0.0168 0.063,0.0216 0.021,0.0048 0.042,0.0167 0.063,0.0215 0.021,0.0048 0.042,0.0166 0.063,0.0215 0.021,0.0048 0.042,0.0165 0.063,0.0214 0.021,0.0049 0.042,0.0165 0.0629,0.0214 0.021,0.0049 0.042,0.0164 0.063,0.0213 0.021,0.005 0.042,0.0164 0.063,0.0213 0.021,0.005 0.042,0.0163 0.063,0.0213 0.021,0.005 0.042,0.0162 0.063,0.0212 0.021,0.005 0.042,0.0162 0.063,0.0212 0.021,0.005 0.042,0.0161 0.063,0.0211 0.021,0.0051 0.042,0.016 0.063,0.0211 0.0209,0.0051 0.0419,0.016 0.0629,0.0211 0.021,0.0051 0.042,0.0158 0.063,0.021 0.021,0.0051 0.042,0.0158 0.063,0.0209 0.021,0.0052 0.042,0.0158 0.063,0.021 0.021,0.0051 0.042,0.0156 0.063,0.0208 0.021,0.0052 0.042,0.0156 0.063,0.0209 0.021,0.0052 0.042,0.0155 0.063,0.0208 0.021,0.0052 0.042,0.0155 0.0629,0.0207 0.021,0.0053 0.042,0.0155 0.063,0.0207 0.021,0.0053 0.042,0.0154 0.063,0.0207 0.021,0.0053 0.042,0.0153 0.063,0.0207 0.021,0.0053 0.042,0.0152 0.063,0.0206 0.021,0.0053 0.042,0.0151 0.063,0.0205 0.021,0.0054 0.042,0.0151 0.063,0.0205 0.021,0.0054 0.042,0.0151 0.063,0.0205 0.021,0.0054 0.0419,0.015 0.0629,0.0204 0.021,0.0055 0.042,0.0149 0.063,0.0204 0.021,0.0055 0.042,0.0149 0.063,0.0204 0.021,0.0055 0.042,0.0147 0.063,0.0203 0.021,0.0055 0.042,0.0147 0.063,0.0203 0.021,0.0055 0.042,0.0146 0.063,0.0202 0.021,0.0056 0.042,0.0146 0.063,0.0202 0.021,0.0056 0.042,0.0145 0.0629,0.0201 0.021,0.0057 0.042,0.0145 0.063,0.0202 0.021,0.0056 0.042,0.0144 0.063,0.02 0.021,0.0057 0.042,0.0144 0.063,0.0201 0.021,0.0057 0.042,0.0142 0.063,0.02 0.021,0.0057 0.042,0.0142 0.063,0.0199 0.021,0.0058 0.042,0.0142 0.063,0.02 0.021,0.0057 0.042,0.014 0.063,0.0198 0.021,0.0058 0.0419,0.014 0.0629,0.0199 0.021,0.0058 0.042,0.0139 0.063,0.0198 0.021,0.0058 0.042,0.0139 0.063,0.0197 0.021,0.0059 0.042,0.0139 0.063,0.0198 0.021,0.0059 0.042,0.0137 0.063,0.0197 0.021,0.0059 0.042,0.0137 0.063,0.0196 0.021,0.006 0.042,0.0136 0.063,0.0196 0.021,0.006 0.042,0.0136 0.0629,0.0196 0.021,0.006 0.042,0.0135 0.063,0.0195 0.021,0.0061 0.042,0.0135 0.063,0.0195 0.021,0.0061 0.042,0.0134 0.063,0.0195 0.021,0.0061 0.042,0.0133 0.063,0.0194 0.021,0.0061 0.042,0.0133 0.063,0.0194 0.021,0.0061 0.042,0.0132 0.063,0.0194 0.021,0.0061 0.042,0.0131 0.063,0.0193 0.021,0.0061 0.0419,0.0131 0.0629,0.0192 0.021,0.0062 0.042,0.0131 0.063,0.0193 0.021,0.0062 0.042,0.0129 0.063,0.0192 0.021,0.0062 0.042,0.0129 0.063,0.0191 0.021,0.0063 0.042,0.0129 0.063,0.0192 0.021,0.0063 0.042,0.0127 0.063,0.0191 0.021,0.0063 0.042,0.0127 0.063,0.019 0.021,0.0064 0.042,0.0127 0.063,0.019 0.0209,0.0064 0.0419,0.0126 0.0629,0.019 0.021,0.0064 0.042,0.0125 0.063,0.019 0.021,0.0064 0.042,0.0124 0.063,0.0189 0.021,0.0064 0.042,0.0124 0.063,0.0188 0.021,0.0065 0.042,0.0124 0.063,0.0189 0.021,0.0065 0.042,0.0123 0.063,0.0188 0.021,0.0065 0.042,0.0122 0.063,0.0187 0.021,0.0066 0.0419,0.0122 0.0629,0.0188 0.021,0.0065 0.042,0.0121 0.063,0.0187 0.021,0.0065 0.042,0.012 0.063,0.0186 0.021,0.0066 0.042,0.012 0.063,0.0186 0.021,0.0067 0.042,0.012 0.063,0.0186 0.021,0.0067 0.042,0.0119 0.063,0.0186 0.021,0.0066 0.042,0.0118 0.063,0.0185 0.021,0.0067 0.042,0.0117 0.063,0.0185 0.0209,0.0067 0.0419,0.0117 0.0629,0.0184 0.021,0.0068 0.042,0.0116 0.063,0.0184 0.021,0.0068 0.042,0.0116 0.063,0.0184 0.021,0.0068 0.042,0.0115 0.063,0.0183 0.021,0.0069 0.042,0.0115 0.063,0.0183 0.021,0.0069 0.042,0.0114 0.063,0.0183 0.021,0.0069 0.042,0.0114 0.063,0.0182 0.021,0.0069 0.0419,0.0113 0.0629,0.0182 0.021,0.007 0.042,0.0113 0.063,0.0182 0.021,0.007 0.042,0.0112 0.063,0.0181 0.021,0.007 0.042,0.0112 0.063,0.0181 0.021,0.007 0.042,0.0111 0.063,0.0181 0.021,0.007 0.042,0.011 0.063,0.018 0.021,0.0071 0.042,0.011 0.063,0.018 0.021,0.0071 0.042,0.0109 0.063,0.018 0.0209,0.0071 0.0419,0.0108 0.0629,0.0179 0.021,0.0071 0.042,0.0108 0.063,0.0179 0.021,0.0072 0.042,0.0107 0.063,0.0179 0.021,0.0071 0.042,0.0106 0.063,0.0178 0.021,0.0072 0.042,0.0106 0.063,0.0178 0.021,0.0072 0.042,0.0106 0.063,0.0178 0.021,0.0072 0.042,0.0105 0.063,0.0177 0.021,0.0072 0.0419,0.0104 0.0629,0.0177 0.021,0.0073 0.042,0.0104 0.063,0.0177 0.021,0.0072 0.042,0.0103 0.063,0.0176 0.021,0.0073 0.042,0.0102 0.063,0.0176 0.021,0.0073 0.042,0.0102 0.063,0.0175 0.021,0.0074 0.042,0.0102 0.063,0.0176 0.021,0.0074 0.042,0.0101 0.063,0.0175 0.021,0.0074 0.042,0.01 0.063,0.0174 0.0209,0.0075 0.0419,0.01 0.0629,0.0175 0.021,0.0074 0.042,0.0099 0.063,0.0174 0.021,0.0075 0.042,0.0098 0.063,0.0173 0.021,0.0075 0.042,0.0098 0.063,0.0174 0.021,0.0075 0.042,0.0097 0.063,0.0173 0.0214,0.0075 0.0424,0.0097 0.0634,0.0172 0.021,0.0076 0.042,0.0097 0.063,0.0173 0.021,0.0076 0.042,0.0096 0.063,0.0172 0.021,0.0076 0.042,0.0095 0.063,0.0172 0.021,0.0076 0.042,0.0094 0.063,0.0171 0.021,0.0077 0.042,0.0094 0.063,0.0171 0.021,0.0077 0.041,0.0094 0.062,0.0171 0.021,0.0077 0.042,0.0093 0.063,0.0171 0.021,0.0077 0.042,0.0092 0.063,0.017 0.021,0.0077 0.042,0.0092 0.063,0.017 0.021,0.0077 0.042,0.0091 0.063,0.0169 0.021,0.0078 0.042,0.0091 0.063,0.0169 0.021,0.0079 0.042,0.0091 0.063,0.0169 0.021,0.0079 0.042,0.009 0.063,0.0169 0.021,0.0079 0.042,0.0089 0.063,0.0168 0.021,0.0079 0.042,0.0089 0.063,0.0168 0.021,0.0079 0.042,0.0088 0.063,0.0168 0.021,0.0079 0.042,0.0087 0.063,0.0167 0.021,0.008 0.042,0.0087 0.063,0.0167 0.021,0.008 0.042,0.0087 0.063,0.0167 0.021,0.008 0.042,0.0086 0.063,0.0166 0.021,0.0081 0.042,0.0086 0.063,0.0167 0.021,0.008 0.042,0.0084 0.063,0.0165 0.021,0.0081 0.042,0.0085 0.063,0.0166 0.021,0.0081 0.042,0.0084 0.063,0.0165 0.021,0.0082 0.042,0.0083 0.063,0.0165 0.021,0.0082 0.042,0.0083 0.063,0.0165 0.021,0.0082 0.042,0.0082 0.063,0.0164 0.021,0.0082 0.042,0.0082 0.063,0.0164 0.021,0.0082 0.042,0.0081 0.063,0.0164 0.021,0.0082 0.042,0.008 0.063,0.0163 0.021,0.0083 0.042,0.008 0.063,0.0163 0.021,0.0083 0.042,0.008 0.063,0.0163 0.021,0.0083 0.042,0.0079 0.063,0.0163 0.021,0.0083 0.042,0.0078 0.063,0.0162 0.021,0.0084 0.042,0.0078 0.063,0.0162 0.021,0.0084 0.042,0.0077 0.063,0.0162 0.021,0.0084 0.042,0.0077 0.063,0.0161 0.021,0.0084 0.042,0.0076 0.063,0.0161 0.021,0.0085 0.042,0.0076 0.063,0.0161 0.021,0.0085 0.042,0.0075 0.063,0.016 0.021,0.0085 0.042,0.0075 0.063,0.016 0.021,0.0086 0.042,0.0075 0.063,0.016 0.021,0.0086 0.042,0.0074 0.063,0.016 0.021,0.0086 0.042,0.0073 0.063,0.0159 0.021,0.0086 0.042,0.0073 0.063,0.0159 0.021,0.0087 0.042,0.0073 0.063,0.0159 0.021,0.0087 0.042,0.0072 0.063,0.0159 0.021,0.0086 0.042,0.0071 0.063,0.0158 0.021,0.0087 0.042,0.007 0.063,0.0158 0.021,0.0087 0.042,0.007 0.063,0.0157"
               title="1/(x*x)"
               clip-path="url(#clipPath1144)"
               id="path1299"
               transform="matrix(0.77562893,0,0,0.87780528,5.4128077,-4.2600391)" />
            <path
               id="rect1306"
               style="fill:none;stroke:#000000;stroke-width:0.445;stroke-linejoin:round;stroke-dasharray:none;marker-start:url(#TriangleStart);marker-end:url(#TriangleStart)"
               d="M 89.071096,76.447573 H 34.467435 V 26.368621"
               sodipodi:nodetypes="ccc" />
            <g
               transform="matrix(0,-0.69478553,0.69478553,0,27.294404,33.241856)"
               ns1:version="1.8.2"
               ns1:texconverter="pdflatex"
               ns1:pdfconverter="inkscape"
               ns1:text="$n$"
               ns1:preamble="/home/sanatan/.config/inkscape/extensions/textext/default_packages.tex"
               ns1:scale="1.0"
               ns1:alignment="middle center"
               ns1:stroke-to-path="0"
               ns1:jacobian_sqrt="0.352778"
               id="g1749"
               style="stroke-width:30;stroke-dasharray:none">
              <defs
                 id="id-a279ed72-5bd4-44e9-a3db-72835f8375a6">
                <g
                   id="id-877276da-211f-4dc6-9ecd-b127bf237c6d">
                  <g
                     id="id-db368f41-a0d8-4ece-bc67-b0a505804aa9" />
                  <g
                     id="id-08e5ff85-e91f-444e-85ad-c1cef8e0242b">
                    <path
                       d="m 0.875,-0.59375 c -0.03125,0.15625 -0.09375,0.390625 -0.09375,0.4375 0,0.171875 0.140625,0.265625 0.296875,0.265625 0.125,0 0.296875,-0.078125 0.375,-0.28125 0,-0.015625 0.125,-0.484375 0.1875,-0.734375 l 0.21875,-0.890625 C 1.90625,-2.03125 1.96875,-2.25 2.03125,-2.46875 c 0.03125,-0.171875 0.109375,-0.46875 0.125,-0.5 0.140625,-0.3125 0.671875,-1.21875 1.625,-1.21875 0.453125,0 0.53125,0.375 0.53125,0.703125 0,0.609375 -0.484375,1.890625 -0.640625,2.3125 C 3.578125,-0.9375 3.5625,-0.8125 3.5625,-0.703125 c 0,0.46875 0.359375,0.8125 0.828125,0.8125 0.9375,0 1.296875,-1.453125 1.296875,-1.53125 0,-0.109375 -0.078125,-0.109375 -0.109375,-0.109375 -0.109375,0 -0.109375,0.03125 -0.15625,0.1875 -0.203125,0.671875 -0.53125,1.234375 -1.015625,1.234375 -0.171875,0 -0.234375,-0.09375 -0.234375,-0.328125 0,-0.25 0.078125,-0.484375 0.171875,-0.703125 0.1875,-0.53125 0.609375,-1.625 0.609375,-2.203125 0,-0.65625 -0.421875,-1.0625 -1.140625,-1.0625 -0.90625,0 -1.390625,0.640625 -1.5625,0.875 -0.046875,-0.5625 -0.453125,-0.875 -0.921875,-0.875 -0.453125,0 -0.640625,0.390625 -0.734375,0.5625 C 0.421875,-3.5 0.296875,-2.90625 0.296875,-2.875 c 0,0.109375 0.09375,0.109375 0.109375,0.109375 0.109375,0 0.109375,-0.015625 0.171875,-0.234375 0.171875,-0.703125 0.375,-1.1875 0.734375,-1.1875 0.1875,0 0.296875,0.125 0.296875,0.453125 0,0.21875 -0.03125,0.328125 -0.15625,0.84375 z m 0,0"
                       id="id-382152bc-f9c4-44fe-bf10-63d1b62011e6" />
                  </g>
                </g>
              </defs>
              <g
                 fill="#000000"
                 fill-opacity="1"
                 id="id-628d3708-cde4-493a-b630-cac5d42372d6"
                 transform="translate(-149.009,-130.359)"
                 style="stroke-width:30;stroke-dasharray:none">
                <g
                   transform="translate(148.712,134.765)"
                   id="g1746"
                   style="stroke-width:30;stroke-dasharray:none">
                  <path
                     d="m 0.875,-0.59375 c -0.03125,0.15625 -0.09375,0.390625 -0.09375,0.4375 0,0.171875 0.140625,0.265625 0.296875,0.265625 0.125,0 0.296875,-0.078125 0.375,-0.28125 0,-0.015625 0.125,-0.484375 0.1875,-0.734375 l 0.21875,-0.890625 C 1.90625,-2.03125 1.96875,-2.25 2.03125,-2.46875 c 0.03125,-0.171875 0.109375,-0.46875 0.125,-0.5 0.140625,-0.3125 0.671875,-1.21875 1.625,-1.21875 0.453125,0 0.53125,0.375 0.53125,0.703125 0,0.609375 -0.484375,1.890625 -0.640625,2.3125 C 3.578125,-0.9375 3.5625,-0.8125 3.5625,-0.703125 c 0,0.46875 0.359375,0.8125 0.828125,0.8125 0.9375,0 1.296875,-1.453125 1.296875,-1.53125 0,-0.109375 -0.078125,-0.109375 -0.109375,-0.109375 -0.109375,0 -0.109375,0.03125 -0.15625,0.1875 -0.203125,0.671875 -0.53125,1.234375 -1.015625,1.234375 -0.171875,0 -0.234375,-0.09375 -0.234375,-0.328125 0,-0.25 0.078125,-0.484375 0.171875,-0.703125 0.1875,-0.53125 0.609375,-1.625 0.609375,-2.203125 0,-0.65625 -0.421875,-1.0625 -1.140625,-1.0625 -0.90625,0 -1.390625,0.640625 -1.5625,0.875 -0.046875,-0.5625 -0.453125,-0.875 -0.921875,-0.875 -0.453125,0 -0.640625,0.390625 -0.734375,0.5625 C 0.421875,-3.5 0.296875,-2.90625 0.296875,-2.875 c 0,0.109375 0.09375,0.109375 0.109375,0.109375 0.109375,0 0.109375,-0.015625 0.171875,-0.234375 0.171875,-0.703125 0.375,-1.1875 0.734375,-1.1875 0.1875,0 0.296875,0.125 0.296875,0.453125 0,0.21875 -0.03125,0.328125 -0.15625,0.84375 z m 0,0"
                     id="id-098b9215-1266-4445-acb3-022347125404"
                     style="stroke-width:30;stroke-dasharray:none" />
                </g>
              </g>
            </g>
            <path
               style="fill:none;stroke:#000000;stroke-width:0.365;stroke-linecap:butt;stroke-linejoin:miter;stroke-dasharray:none;stroke-opacity:1;marker-end:url(#EmptyTriangleIn)"
               d="M 28.298918,47.583806 V 39.463689"
               id="path2494" />
            <path
               style="fill:none;stroke:#000000;stroke-width:0.365;stroke-linecap:butt;stroke-linejoin:miter;stroke-dasharray:none;stroke-opacity:1;marker-end:url(#EmptyTriangleIn)"
               d="m 67.744768,80.678541 h 8.120117"
               id="path2542" />
            <g
               transform="matrix(0.694786,0,0,0.694786,80.6733,77.1264)"
               ns1:version="1.8.2"
               ns1:texconverter="pdflatex"
               ns1:pdfconverter="inkscape"
               ns1:text="$\\lambda$"
               ns1:preamble="/home/sanatan/.config/inkscape/extensions/textext/default_packages.tex"
               ns1:scale="1.9694696664758007"
               ns1:alignment="middle center"
               ns1:stroke-to-path="0"
               ns1:inkscapeversion="1.2.2"
               ns1:jacobian_sqrt="0.694786"
               style="stroke-width:0"
               id="g1903">
              <defs
                 id="id-49cc13d5-09d9-4daa-91eb-0b0cb9aa78cd"
                 style="stroke-width:0">
                <g
                   id="id-e642f289-91b0-4ff4-832f-e7d213052408"
                   style="stroke-width:0">
                  <g
                     id="id-095cbe6f-8ebf-4d43-994f-86cf1305829d"
                     style="stroke-width:0" />
                  <g
                     id="id-5ab14b9a-3185-4431-a521-810f54b439d0"
                     style="stroke-width:0">
                    <path
                       d="m 3.5625,-2.90625 c 0.40625,1.046875 0.890625,2.5625 1.046875,2.796875 0.15625,0.21875 0.25,0.21875 0.53125,0.21875 h 0.21875 c 0.09375,-0.015625 0.109375,-0.0625 0.109375,-0.09375 0,-0.03125 -0.03125,-0.0625 -0.0625,-0.09375 C 5.3125,-0.1875 5.25,-0.34375 5.1875,-0.53125 L 3.15625,-6.203125 c -0.21875,-0.578125 -0.75,-0.71875 -1.21875,-0.71875 -0.046875,0 -0.1875,0 -0.1875,0.109375 0,0.078125 0.078125,0.109375 0.09375,0.109375 C 2.171875,-6.65625 2.25,-6.59375 2.5,-5.90625 l 0.953125,2.703125 -2.75,2.734375 c -0.109375,0.125 -0.171875,0.171875 -0.171875,0.3125 0,0.171875 0.140625,0.28125 0.296875,0.28125 0.15625,0 0.25,-0.109375 0.328125,-0.203125 z m 0,0"
                       id="id-c642d394-0427-4c4f-a24c-17144992fe38"
                       style="stroke-width:0" />
                  </g>
                </g>
              </defs>
              <g
                 fill="#000000"
                 fill-opacity="1"
                 id="id-459752b8-49d4-42c4-94c7-29b3f58ac235"
                 transform="translate(-149.243,-127.843)"
                 style="stroke-width:0">
                <g
                   transform="translate(148.712,134.765)"
                   style="stroke-width:0"
                   id="g1005">
                  <path
                     d="m 3.5625,-2.90625 c 0.40625,1.046875 0.890625,2.5625 1.046875,2.796875 0.15625,0.21875 0.25,0.21875 0.53125,0.21875 h 0.21875 c 0.09375,-0.015625 0.109375,-0.0625 0.109375,-0.09375 0,-0.03125 -0.03125,-0.0625 -0.0625,-0.09375 C 5.3125,-0.1875 5.25,-0.34375 5.1875,-0.53125 L 3.15625,-6.203125 c -0.21875,-0.578125 -0.75,-0.71875 -1.21875,-0.71875 -0.046875,0 -0.1875,0 -0.1875,0.109375 0,0.078125 0.078125,0.109375 0.09375,0.109375 C 2.171875,-6.65625 2.25,-6.59375 2.5,-5.90625 l 0.953125,2.703125 -2.75,2.734375 c -0.109375,0.125 -0.171875,0.171875 -0.171875,0.3125 0,0.171875 0.140625,0.28125 0.296875,0.28125 0.15625,0 0.25,-0.109375 0.328125,-0.203125 z m 0,0"
                     id="id-0c3238e5-f057-4ed5-858b-31782fbdff19"
                     style="stroke-width:0" />
                </g>
              </g>
            </g>
          </g>
        </g>
      </g>
    </g>
  </g>
</svg>
